<?xml version="1.0" encoding="utf-8"?>
<!-- Generator: Adobe Illustrator 26.0.1, SVG Export Plug-In . SVG Version: 6.00 Build 0)  -->
<svg version="1.1" id="Layer_1" xmlns="http://www.w3.org/2000/svg" xmlns:xlink="http://www.w3.org/1999/xlink" x="0px" y="0px"
	 viewBox="0 0 1920 1080" style="enable-background:new 0 0 1920 1080;" xml:space="preserve">
<style type="text/css">
	.st0{fill:#2B4779;}
	.st1{fill:#1BB9AB;}
	.st2{fill:#FFFFFF;}
</style>
<g>
	<g>
		<path class="st2" d="M974.5,400.5H835.1v43h43.3v12.3c-1.8,12.3-5.4,14.8-18.4,14.8h-62.5c-13.4,0-17-2.5-18.8-14.8V338h-43v112.3
			c0,41.2,23.5,63.9,65.7,63.9h54.2c42.3,0,65.7-22.8,65.7-63.9v-6.9h96.1V279.8h-43V400.5z"/>
		<rect x="1833" y="210.1" class="st2" width="43" height="233.3"/>
		<rect x="1241.1" y="252.4" class="st2" width="7.1" height="7.1"/>
		<rect x="1241.1" y="264.8" class="st2" width="7.1" height="7.1"/>
		<rect x="1241.1" y="278.1" class="st2" width="7.1" height="7.1"/>
		<rect x="1227.9" y="252.4" class="st2" width="7.1" height="7.1"/>
		<path class="st2" d="M1757.5,400.5h-53.1v-55.3c0-38.6-27.8-65.4-67.9-65.4H1574v43h63.9c15.2,0,22.8,8.7,22.8,26.4v51.3h-196.5
			V287.7L1264,316.7V212.5l-54.8,30v-127h-11v40.2c-18.1,17.7-49.5,55.1-62.1,110.7c-13.4,58.9,0.6,108.3,11,134H1093V210.1h-43
			v233.3h750.5V210.1h-43V400.5z M1218,250.2l34.9-19.2v87.2l-21.6,3.1l-13.3-6.7V250.2z M1198.2,171.6v38.3h-28.1
			C1179.7,193.3,1190,180.5,1198.2,171.6z M1168.6,212.6h29.6v8.9h-34.3C1165.4,218.4,1167,215.4,1168.6,212.6z M1162.6,224.1h35.6
			v8.9h-39.6C1159.8,229.9,1161.2,226.9,1162.6,224.1z M1157.4,235.6h40.8v8.9H1154C1155.1,241.4,1156.2,238.5,1157.4,235.6z
			 M1153,247.1h45.1v8.9h-48C1151.1,252.9,1152,250,1153,247.1z M1174.5,400.5H1159l-0.7-1.6c-10-23.6-24.7-72-11.6-130
			c0.8-3.5,1.7-7,2.6-10.3h48.8V304l-23.7-12.9V400.5z M1209.3,400.3h-7.1v-73.5h-3.5v73.5h-5.3v-73.5h-3.5v73.5h-7.1V310l2.7,1.5
			l23.8,12.7V400.3z M1422.6,400.5h-205.9v-34.9l8-1.2l1.8-0.3l0.4-0.1l1.8-0.3l0.4-0.1l2.1-0.3l0.4-0.1l1.8-0.3l0.4-0.1l1.8-0.3
			l17.2-2.5l1.8-0.3l0.4-0.1l1.8-0.3l0.4-0.1l2.1-0.3l0.4-0.1l1.8-0.3l0.4-0.1l1.8-0.3l158.7-22.9V400.5z"/>
		<path class="st2" d="M363.2,300.8h-82.3v42.7h79c18.6,4.9,27.4,15.5,26.4,31.8v60H261.6h-8.9h-9.6c1.2-21.5-2.9-44.1-12.3-68
			c-9.4-23.9-27-43.5-52.8-58.8c-21.5-11.3-45.9-16.3-73.4-14.8v46.1c58.6,1.8,88.8,30.6,90.6,86.6v8.9H71.1v42.5h181.6h8.9h117.9
			h61.3v-42.5v-71.8C432.9,323.8,407.1,302.9,363.2,300.8z"/>
		<rect x="470.1" y="209.3" class="st2" width="52.3" height="268.4"/>
		<path class="st2" d="M694.3,435.2V298.8h-17.7c-68.9,0.6-109.1,18.6-120.5,54c-11.4,35.4-8.6,65.6,8.5,90.5
			c17.1,24.9,44,36.4,80.6,34.5c3.1,13.3-2,20.5-15.4,21.7h-71.8v45.4h65.5c25.8,1.3,45.3-5.5,58.6-20.6
			c8.5-11.9,12.5-27.4,12.1-46.5V435.2z M645.3,435.2c-24.2,2.8-40.3-8.2-48.5-33.1c-6.1-37.9,10.1-57.6,48.5-59.3V435.2z"/>
	</g>
	<g>
		<g>
			<rect x="838.2" y="541.1" class="st1" width="44.3" height="44.3"/>
			<rect x="973.7" y="470.3" class="st1" width="44.3" height="44.3"/>
			<rect x="777.1" y="541.1" class="st1" width="44.3" height="44.3"/>
			<path class="st1" d="M113.8,653.5c2.7,0,5.1-1,7.1-2.9c2-2,3.1-4.4,3.1-7.1c0-2.7-1-5.1-3.1-7.1c-2-2-4.4-3.1-7.1-3.1
				c-2.6,0-4.9,1-6.8,3.1c-2,2-3.1,4.4-3.1,7.1c0,2.7,1,5.1,3.1,7.1C108.9,652.5,111.2,653.5,113.8,653.5z"/>
			<path class="st1" d="M135.5,661.1h-7.1v24.6c0,5.2-2.3,8-6.8,8.3H77.4c-4.8,0-8-2.2-9.8-6.6c-0.7-1.6-1.1-3.4-1.3-5.5
				c-0.1-0.8-0.2-1.7-0.3-2.6v-2c0-3.3,0.9-6.8,2.6-10.6c1.9-4.6,4.8-8.5,8.6-11.8H66.9c-11.2,0-16.8,8.3-16.8,24.8
				c0,1.4,0,2.7,0.1,3.9c0.1,1.7,0.3,3.3,0.6,4.8c0.6,4.1,1.7,7.7,3.5,10.8c4.7,8.5,12.9,12.8,24.8,12.8h43.7
				c8.3-0.2,14.7-2.7,19.2-7.6c4.3-4.6,6.4-10.5,6.4-17.8v-12.5C148.5,665.4,144.2,661.1,135.5,661.1z"/>
			<path class="st1" d="M91.8,653.5c2.6,0,5-1,7-2.9c1.9-2,2.9-4.4,2.9-7.1c0-2.7-1-5.1-2.9-7.1c-2-2-4.4-3.1-7-3.1
				c-2.7,0-5.1,1-7,3.1c-2,2-3.1,4.4-3.1,7.1c0,2.7,1,5.1,3.1,7.1C86.8,652.5,89.1,653.5,91.8,653.5z"/>
			<path class="st1" d="M223.2,624.5h-7v61.2c0,5.2-2.3,8-6.8,8.3h-12.7v-59.6c0-2.7-1.2-5.1-3.6-7.1c-2.2-1.8-4.7-2.8-7.3-2.8h-9.2
				V694h-15.7v6.1c0,7.9,4.6,11.8,13.8,11.8h36.1c8.2-0.3,14.5-2.9,19.1-7.7c4.2-4.5,6.3-10.3,6.3-17.6v-49.4
				C236.2,628.8,231.9,624.5,223.2,624.5z"/>
			<path class="st1" d="M292,651.2c-3.6-1.3-7.2-1.9-10.8-1.9c-9.3,0-16.7,3.2-22.1,9.5c-5.1,5.9-7.6,13.5-7.6,22.9
				c0,11,4.1,18.9,12.2,23.9c5.9,3.6,14.3,5.7,25.1,6.3c-5.5,5.3-15.1,8.2-28.6,8.4v7.1c0,2.4,1.1,4.5,3.2,6.1
				c2.1,1.7,5,2.5,8.4,2.5c13.2,0,23.3-3.7,30.2-11.2c2.7-2.8,4.8-6.1,6.1-9.8c1.3-3.1,1.9-6.2,1.9-9.2l0.3-21.6
				c0-3.4-0.4-7.2-1.3-11.4C307.1,662.2,301.4,655,292,651.2z M292.3,694h-6.1c-5.1,0-9-0.7-11.5-2.2c-3.6-2.2-5.4-6.3-5.4-12.1
				c0-4.4,0.9-7.9,2.8-10.5c1.8-2.8,4.5-4.2,8-4.2c5.2,0,8.7,2.8,10.5,8.4c0.7,2.2,1.2,5,1.5,8.3l0.1,4.5l0.1,4.5V694z"/>
			<path class="st1" d="M411.7,643.5c2.8,0,5.1-1,7-2.9c1.9-1.9,2.9-4.3,2.9-7c0-2.8-1-5.1-2.9-7c-1.8-1.9-4.2-2.9-7-2.9
				c-2.8,0-5.2,1-7.1,2.9c-1.9,1.9-2.9,4.3-2.9,7c0,2.7,1,5.1,2.9,7C406.5,642.5,408.9,643.5,411.7,643.5z"/>
			<path class="st1" d="M433.1,643.5c2.6,0,5-1,7-2.9c1.9-1.9,2.9-4.3,2.9-7c0-2.7-1-5-2.9-7c-2-1.9-4.4-2.9-7-2.9
				c-2.8,0-5.2,1-7.1,2.9c-1.9,1.8-2.9,4.2-2.9,7c0,2.8,1,5.1,2.9,7C427.9,642.5,430.3,643.5,433.1,643.5z"/>
			<path class="st1" d="M588.6,711.9L588.6,711.9l0.4,0h5.5h1c8.4-0.3,14.8-2.8,19.2-7.6c4.3-4.5,6.4-10.4,6.4-17.8v-49.1
				c0-8.5-4.3-12.8-13-12.8h-7.1v61.2c0,5.1-2.3,7.9-6.8,8.2h-3.1c-4.8,0-7.9-0.9-9.5-2.8c-1.4-1.5-2.1-4.5-2.3-9.2v-44.6
				c0-8.5-4.3-12.8-12.8-12.8h-7v61c0,5.1-2.4,7.9-7.1,8.3h-2c-5.1,0-8.6-0.9-10.8-2.8c-2.1-1.8-3.2-5-3.2-9.5
				c0-9.3-2.5-16.9-7.6-22.7c-5.3-6.3-12.7-9.5-22-9.5c-8.5,0-15.5,3-21,9c-5.1,5.7-7.6,12.7-7.6,21c-0.1,5.4-1.1,9.2-2.9,11.2
				c-2,2.1-5.8,3.2-11.2,3.2h-0.6h-2.9h-9.2v-9.8c0-10.2-2.6-18.5-7.7-24.9c-5.4-6.7-12.6-10.1-21.4-10.1c-9.3,0-16.7,3.2-22,9.5
				c-5.1,5.9-7.6,13.5-7.6,22.9c0,4.7,0.7,8.8,2.2,12.4h-8.4h-4.2h-12.5h-5.2h-12.8h-3.6c-3.8-0.3-6-2.2-6.7-5.7v-53.8
				c0-2.8-1.2-5.2-3.5-7.3c-2.2-1.8-4.7-2.8-7.3-2.8h-9.3v62.1c0,7.4,2.1,13.3,6.4,17.8c4.5,4.8,10.8,7.3,19.1,7.6h1h3.9h12.8h5.2
				h12.5h4.2h74.1h2.9h2.8c9,0,16.3-2.4,21.9-7.1c5.4,4.8,12,7.1,19.8,7.1c6.9,0,13.1-2.3,18.6-6.8c4.7,4.4,11.6,6.7,20.7,6.8v0
				c0.2,0,0.4,0,0.5,0c0.1,0,0.1,0,0.2,0h5.7v-0.3c7.6-0.6,13.4-2.5,17.3-5.6C575.6,709.9,581.4,711.8,588.6,711.9z M433.7,694h-5.8
				l-3.6-0.3c-2.7-0.2-5-0.7-6.8-1.5c-4.7-2-7-6.2-7-12.5c0-9.8,3.6-14.7,10.8-14.7c5,0,8.5,2.1,10.5,6.4c1.4,3.1,2,7.9,2,14.4V694z
				 M506.9,696.3c-7.3,0-10.9-4.9-10.9-14.6c0-11,4-16.5,12.1-16.5c7.1,0,10.6,4.9,10.6,14.6C518.7,690.9,514.7,696.3,506.9,696.3z"
				/>
			<path class="st1" d="M842.1,725c1.6-6.7,2.3-13.1,2.3-19.2c0-14.5-2.9-27-8.7-37.4c-7-12.6-17-18.9-30-18.9
				c-7.9,0-13.9,1.8-18.2,5.4c-4.1,3.3-6.1,7.6-6.1,13v9.9c7.2-6.8,14.2-10.2,21.1-10.2c6.1,0,11.3,3.3,15.6,9.8
				c1.6,2.4,3,5.3,4.4,8.7c1,2.4,1.8,5.1,2.6,8h-47.2h-4.2h-12.5h-5.2h-13.5h-3.2h-0.3c-5.1,0-8.4-0.7-10.1-2.2
				c-1.3-1.1-2.7-4.1-4.4-9v0.1c-4.7-15.6-13.2-25.2-25.6-28.8c-2.1-0.6-4.3-0.9-6.4-0.9c-5.8,0-10.6,2.9-14.3,8.6l-3.5,8.2
				c5-0.8,8.1-1.2,9.3-1.2c6.7,0,12.3,2.6,16.9,7.9c4.1,4.8,6.4,10.5,7,17.3h-37.9v7.6c0,2.8,0.8,5.2,2.3,7.1
				c1.7,2.1,4.2,3.2,7.3,3.2h32.3c3.3,0,6.7-1.6,10.2-4.7c3.7,3.1,9.4,4.6,17,4.7v0h0.3h2.9h13.5h5.2h12.5h4.2h42
				C830.7,712.8,838.2,717.2,842.1,725z"/>
			<path class="st1" d="M879.5,711.9v-77.5c0-2.7-1.2-5.1-3.5-7.1c-2.2-1.8-4.7-2.8-7.3-2.8h-9v74.7c0,4.1,1.2,7.3,3.5,9.6
				c2.1,2,4.8,3.1,8,3.1H879.5z"/>
			<path class="st1" d="M903.4,705.5c5.9,3.6,14.3,5.7,25.1,6.3c-5.5,5.3-15.1,8.2-28.6,8.4v7.1c0,2.4,1.1,4.5,3.2,6.1
				c2.1,1.7,5,2.5,8.4,2.5c13.2,0,23.3-3.7,30.2-11.2c2.7-2.8,4.8-6.1,6.1-9.8c1.3-3.1,1.9-6.2,1.9-9.2l0.3-21.6
				c0-3.4-0.4-7.2-1.3-11.4c-1.9-10.7-7.6-17.9-17-21.7c-3.6-1.3-7.2-1.9-10.8-1.9c-9.3,0-16.7,3.2-22.1,9.5
				c-5.1,5.9-7.6,13.5-7.6,22.9C891.1,692.6,895.2,700.6,903.4,705.5z M911.7,669.3c1.8-2.8,4.5-4.2,8-4.2c5.2,0,8.7,2.8,10.5,8.4
				c0.7,2.2,1.2,5,1.5,8.3l0.1,4.5l0.1,4.5v3.2h-6.1c-5.1,0-9-0.7-11.5-2.2c-3.6-2.2-5.4-6.3-5.4-12.1
				C908.9,675.4,909.8,671.9,911.7,669.3z"/>
			<path class="st1" d="M1047.9,759.3c2.7,0,5.1-1,7.1-2.9c1.9-1.9,2.9-4.3,2.9-7c0-2.8-1-5.1-2.9-7c-1.9-1.8-4.3-2.8-7.1-2.8
				c-2.8,0-5.2,0.9-7.1,2.8c-1.9,1.8-2.9,4.2-2.9,7c0,2.7,1,5,2.9,7C1042.8,758.3,1045.2,759.3,1047.9,759.3z"/>
			<path class="st1" d="M1025.7,739.6c-2.8,0-5.1,0.9-7,2.8c-1.9,1.8-2.9,4.2-2.9,7c0,2.7,1,5,2.9,7c1.9,1.9,4.3,2.9,7,2.9
				c2.6,0,5-1,7-2.9c1.9-1.9,2.9-4.3,2.9-7c0-2.8-1-5.1-2.9-7C1030.8,740.5,1028.5,739.6,1025.7,739.6z"/>
			<path class="st1" d="M1153.5,704.2c4.2-4.5,6.3-10.3,6.3-17.6v-12.7c0-8.6-4.2-13-12.5-13h-7.1v24.8c0,5.1-2.3,7.9-7,8.3h-10.3
				h-2.9h-9.5v-44.6h-14.9c-17.2,0-29.3,5.1-36.3,15.4c-2.3,3.9-4.1,8.8-5.2,14.9c-1,4.6-1.6,9.7-1.9,15.3
				c-0.6,7.7-1.3,12.7-2.2,15.2c-1.7,4.2-4.8,6.3-9.3,6.3c-9.9-0.1-16.6-2.3-20-6.6c-2.4-3-3.6-8.1-3.6-15.3c0-4.5,1.2-9.1,3.5-13.8
				c1.8-3.6,4-6.8,6.6-9.6l-8.3-0.7c-5.7,0-10.3,2.3-13.7,6.8c-3.3,4.6-5,10.7-5,18.5c0,25.2,13.2,37.9,39.5,37.9
				c10.8,0,18.5-3.4,23.3-10.3c3.6-5.3,5.8-13.6,6.7-24.8c0.9-9.6,2.5-16.5,5-20.7c3.5-6.3,9.5-9.7,18.1-10.2v44.3h27.2h2.9h11.8
				C1142.8,711.6,1149.1,709.1,1153.5,704.2z"/>
			<path class="st1" d="M1140.7,719.2c-2.7,0-5.1,1-7,2.9c-1.8,1.9-2.8,4.2-2.8,6.8c0,2.8,1,5.2,2.9,7.1c1.9,1.9,4.2,2.9,6.8,2.9
				s5-1,7-2.9c2.1-1.9,3.2-4.3,3.1-7.1c0-2.7-1-5-3.1-6.8C1145.7,720.2,1143.4,719.2,1140.7,719.2z"/>
			<path class="st1" d="M1237.4,711.9h103.1h1.5h77.2h3.6h3.3c8.4-0.3,14.8-2.8,19.2-7.6c4.3-4.5,6.4-10.4,6.4-17.8v-49.1
				c0-8.5-4.3-12.8-13-12.8h-7.1v61.2c0,5.1-2.3,7.9-6.8,8.2h-2h-3.6h-9.2c-1.9-12.1-5.7-22.1-11.2-29.9c-6.9-9.7-15.9-14.6-27-14.6
				c-8.1,0-14.2,1.7-18.5,5.2c-3.9,3.2-5.8,7.5-5.8,13v9.9c7.3-6.8,14.4-10.2,21.3-10.2c6.1,0,11.3,3.3,15.6,9.8
				c1.7,2.4,3.1,5.3,4.4,8.6c1.1,2.5,2,5.2,2.8,8.2H1342h-1.5h-8.7c0-0.1,0-0.4,0.1-0.9v-1c0-10.7-2.5-20-7.4-28
				c-6-9.7-14.5-14.6-25.3-14.6c-12.3,0-23.4,6.8-33.1,20.4v-33.2c0-4.4-1-7.5-2.9-9.5c-1.9-1.8-5.2-2.8-9.8-2.8h-5.1v32.6
				c0,20,0,32.3,0.1,36.9h-11.1h-4.2h-12.5h-5.2h-12.8h-3.6c-3.8-0.3-6-2.2-6.7-5.7v-53.8c0-2.8-1.2-5.2-3.5-7.3
				c-2.2-1.8-4.7-2.8-7.3-2.8h-9.3v62.1c0,7.4,2.1,13.3,6.4,17.8c4.5,4.8,10.8,7.3,19.1,7.6h1h3.9h12.8h5.2h12.5H1237.4z
				 M1278.5,678.1c5.2-5.7,10.9-8.7,17-9c7,0.5,12,3.1,15,7.7c2.4,3.6,3.6,8.4,3.6,14.6v2.6H1269
				C1271.1,688.1,1274.2,682.8,1278.5,678.1z"/>
			<path class="st1" d="M1484,711.9v-77.5c0-2.7-1.2-5.1-3.5-7.1c-2.2-1.8-4.7-2.8-7.3-2.8h-9v74.7c0,4.1,1.2,7.3,3.5,9.6
				c2.1,2,4.8,3.1,8,3.1H1484z"/>
			<path class="st1" d="M1553.4,643.5c2.6,0,5-1,7-2.9c1.9-2,2.9-4.4,2.9-7.1c0-2.7-1-5.1-2.9-7.1c-2-2-4.4-3.1-7-3.1
				c-2.7,0-5.1,1-7,3.1c-2,2-3.1,4.4-3.1,7.1c0,2.7,1,5.1,3.1,7.1C1548.3,642.5,1550.7,643.5,1553.4,643.5z"/>
			<path class="st1" d="M1575.4,643.5c2.7,0,5.1-1,7.1-2.9c2-2,3.1-4.4,3.1-7.1c0-2.7-1-5.1-3.1-7.1c-2-2-4.4-3.1-7.1-3.1
				c-2.6,0-4.9,1-6.8,3.1c-2,2-3.1,4.4-3.1,7.1c0,2.7,1,5.1,3.1,7.1C1570.5,642.5,1572.8,643.5,1575.4,643.5z"/>
			<path class="st1" d="M1694.4,622.1c0-2.5-0.6-4.5-1.7-6l-5-6.4l-53.6,40.1c-3.1,2.4-4.7,5.3-4.7,8.6c0,2,0.7,4.1,2.2,6.1l3.9,5.1
				c2.5-0.5,5-0.7,7.6-0.7c4.3,0,8.4,1.3,12.5,3.8v-0.1l0.1,0.1l0.4,0.3c0.4,0.3,0.8,0.6,1.3,1c1.3,1.1,2.5,2.3,3.6,3.8
				c3.5,4.7,5.4,10.1,5.8,16.3h-38.5h-6h-12.8h-3.2h-13c0-1.3,0-2.9,0.1-4.8v-4.8c0-9.5-2.2-17.5-6.7-23.9
				c-5.2-7.4-12.7-11.1-22.4-11.1c-9.3,0-16.7,3.2-22.1,9.5c-5.1,5.9-7.6,13.5-7.6,22.9c0,11.8,4.7,20,14,24.8
				c3.6,1.9,8,3.4,13.3,4.2c3.9,0.7,8.5,1.1,13.8,1.2h30.6h3.2h12.8h6h56.8v-15.7c0-8.1-1.7-15.5-5-22.4c-1.2-2.3-2.5-4.5-3.9-6.6
				c-0.5-0.8-1-1.5-1.6-2.2l-0.6-0.7l-0.4-0.6c-2.4-2.9-5.6-5.3-9.6-7.3c-1.3-0.7-2.6-1.2-3.9-1.6c-0.5-0.2-0.9-0.4-1.3-0.6
				c-0.4-0.1-0.7-0.1-0.9-0.1h-0.4l33.7-25.2C1693.4,627.2,1694.4,625,1694.4,622.1z M1576,694h-4.8l-3.8-0.3
				c-2.8-0.2-5.2-0.7-7.1-1.5c-5.1-2-7.6-6.2-7.6-12.4c0-9.8,3.5-14.7,10.6-14.7c5.1,0,8.7,2.2,10.6,6.6c1.4,3.1,2,8,2,14.6V694z"/>
			<path class="st1" d="M1814.1,624.7c2.4,0,4.6-0.9,6.4-2.8c1.8-1.8,2.8-4,2.8-6.4c0-2.5-0.9-4.7-2.8-6.6c-1.8-1.8-4-2.8-6.4-2.8
				c-2.5,0-4.7,0.9-6.6,2.8c-1.7,1.8-2.6,4-2.6,6.6c0,2.4,0.9,4.6,2.6,6.4C1809.4,623.8,1811.6,624.7,1814.1,624.7z"/>
			<path class="st1" d="M1803.2,643.3c2.6,0,5-1,7-2.9c1.9-2,2.9-4.4,2.9-7.1c0-2.7-1-5.1-2.9-7.1c-2-2-4.4-3.1-7-3.1
				c-2.7,0-5.1,1-7,3.1c-2,2-3.1,4.4-3.1,7.1c0,2.7,1,5.1,3.1,7.1C1798.2,642.4,1800.5,643.3,1803.2,643.3z"/>
			<path class="st1" d="M1815.3,633.3c0,2.7,1,5.1,3.1,7.1c1.9,1.9,4.2,2.9,6.8,2.9c2.7,0,5.1-1,7.1-2.9c2-2,3.1-4.4,3.1-7.1
				c0-2.7-1-5.1-3.1-7.1c-2-2-4.4-3.1-7.1-3.1c-2.6,0-4.9,1-6.8,3.1C1816.3,628.2,1815.3,630.6,1815.3,633.3z"/>
			<path class="st1" d="M1847.5,653.7h-7.1v32c0,5.1-2.9,7.9-8.6,8.3c-4.6,0-7.5-0.8-8.7-2.3c0.5-3.7,0.7-8.4,0.7-14v-11.2
				c0-8.5-4.2-12.8-12.7-12.8h-7.1v32c0,5.1-2.4,7.9-7.1,8.3h-9.6v-30.4c0-2.7-1.2-5.1-3.5-7.1c-2.2-1.8-4.7-2.8-7.3-2.8h-9V694
				h-12.7h-2.2h-10.3v-20.1c0-4.7-0.8-8-2.5-9.9c-1.8-1.9-5-2.9-9.5-2.9h-7.7v45.5c0,4.5-0.4,7.5-1.3,9c-1.1,2-3.3,3.1-6.7,3.1
				c-0.1,0-2.6-0.3-7.4-0.9v7.9c0,3.2,1.2,5.7,3.6,7.6c2.4,1.8,5.6,2.8,9.6,2.8c6.2,0,11.4-2.1,15.4-6.3c3.8-4,5.7-8.8,5.7-14.4
				v-3.4h11.1h2.2h39.2c8.5,0,15.2-1.5,20-4.5c3.2,1.9,7.3,3.3,12.4,3.9c1.7,0.3,3.3,0.5,5,0.6h3.8c8.3-0.3,14.6-2.9,19.1-7.7
				c4.3-4.5,6.4-10.4,6.4-17.8v-20C1860.5,657.9,1856.1,653.7,1847.5,653.7z"/>
			<path class="st1" d="M614.5,769c-10.6,0-19,3.5-25.2,10.6c-6,6.8-8.9,15.9-8.9,27.2c0,10.4,3.2,19,9.5,25.8
				c6.2,6.7,13.9,10,23.1,10c10.6,0,19-3.6,25.2-10.8c6-7,8.9-16,8.9-27.1c0-10.8-3.3-19.6-9.8-26.2
				C631.1,772.1,623.5,769,614.5,769z M625.5,822.1c-2.7,3.5-6.4,5.3-11.3,5.3c-11.1,0-16.6-7.6-16.6-22.7c0-6.3,1.5-11.3,4.5-14.9
				c2.8-3.6,6.5-5.4,11.1-5.4c11.1,0,16.6,7.4,16.6,22.2C629.8,813.3,628.4,818.5,625.5,822.1z"/>
			<path class="st1" d="M683.9,786.4c-7.8,0-14,2.4-18.4,7.3c-3.9,4.3-5.9,9.6-5.9,15.9v21.8c0,2.8,0.9,5.2,2.8,7.1
				c2,1.9,4.5,2.8,7.5,2.8h5.4v-30.7c0-3,0.7-5.4,2.1-7.2c1.3-1.6,3.1-2.5,5.3-2.5c5.6,0,8.5,3.5,8.5,10.5v20c0,2.9,1,5.3,2.9,7.1
				c2,1.9,4.7,2.8,7.9,2.8h5.1v-31c0-7.4-2.3-13.3-6.8-17.7C696,788.5,690.5,786.4,683.9,786.4z"/>
			<path class="st1" d="M761.7,818.4c4-2,6-5.7,6-10.8c0-6.3-2.2-11.4-6.7-15.4c-4.2-3.8-9.3-5.8-15.2-5.8c-7.8,0-14,2.6-18.8,7.9
				c-4.9,5.3-7.4,12.4-7.4,21.1c0,7.9,2.7,14.5,8.2,19.7c5.1,4.9,11.1,7.3,18.1,7.3c13.3,0,19.9-4.3,19.9-12.9v-5.6
				c-5.8,3.2-11.7,4.8-17.5,4.8c-6.4,0-10.3-2.4-11.9-7.1h6C751.4,821.5,757.9,820.5,761.7,818.4z M735.8,809.4
				c0.2-2.5,1.1-4.6,2.7-6.4c1.6-1.9,3.7-2.8,6.2-2.8c5.2,0,7.8,2,7.8,5.9c0,1.3-0.8,2.1-2.5,2.5c-1.8,0.5-5.3,0.8-10.4,0.8H735.8z"
				/>
			<path class="st1" d="M853.6,773c-3.8-2.6-8.8-3.9-15.1-3.9c-10.8,0-19.5,3.5-26.2,10.5c-6.7,6.9-10,15.9-10,26.8
				c0,10.4,3.5,19,10.5,25.7c6.7,6.5,14.9,9.8,24.6,9.8c5.8,0,10.8-1.2,14.8-3.5c4.7-2.7,7.1-6.5,7.1-11.4v-6.8
				c-7.2,4.5-13.9,6.7-20.1,6.7c-6,0-10.8-1.9-14.4-5.7c-3.7-3.9-5.5-9.5-5.5-16.6c0-6,1.8-10.9,5.5-14.7c3.7-3.7,8.3-5.5,13.9-5.5
				c3.1,0,6.4,0.5,9.8,1.5c4,1.3,7.7,3.2,11.1,5.8v-6.8C859.5,779.7,857.6,775.8,853.6,773z"/>
			<path class="st1" d="M893.3,786.4c-8.3,0-14.9,2.8-19.8,8.5c-4.5,5.3-6.7,12.2-6.7,20.5c0,7.5,2.2,13.7,6.6,18.8
				c4.8,5.4,11.1,8.1,18.8,8.1c8.4,0,15-2.8,19.8-8.4c4.5-5.3,6.7-12,6.7-20.4c0-7.5-2.2-13.8-6.6-19
				C907.4,789.2,901.1,786.4,893.3,786.4z M893.3,827.9c-6.8,0-10.2-4.7-10.2-14.2c0-3.8,0.8-6.8,2.4-9.1c1.6-2.4,3.8-3.5,6.8-3.5
				c6.8,0,10.2,4.8,10.2,14.4C902.5,823.7,899.4,827.9,893.3,827.9z"/>
			<path class="st1" d="M955.3,786.4c-7.8,0-14,2.4-18.4,7.3c-3.9,4.3-5.9,9.6-5.9,15.9v21.8c0,2.8,0.9,5.2,2.8,7.1
				c2,1.9,4.5,2.8,7.5,2.8h5.4v-30.7c0-3,0.7-5.4,2.1-7.2c1.3-1.6,3.1-2.5,5.3-2.5c5.6,0,8.5,3.5,8.5,10.5v20c0,2.9,1,5.3,2.9,7.1
				c2,1.9,4.7,2.8,7.9,2.8h5.1v-31c0-7.4-2.3-13.3-6.8-17.7C967.4,788.5,961.9,786.4,955.3,786.4z"/>
			<path class="st1" d="M1009.1,776.3h-4.7c-2.8,0-5.4,1.6-7.7,4.7c-2.3,3.1-3.4,6.6-3.4,10.4v30.1c0,13.6,6.8,20.4,20.4,20.4
				c8.6,0,12.8-3.4,12.8-10.1v-6.1c-4.7,1.2-8.5,1.8-11.3,1.8c-4.1,0-6.1-2.4-6.1-7.3V802h8.1c2.9,0,5.3-0.9,7.1-2.6
				c1.5-1.4,2.2-3.1,2.2-4.9v-6.8h-17.4V776.3z"/>
			<path class="st1" d="M1056.1,787.1c-6.8,0-11.9,2.2-15.5,6.6c-3.1,3.8-4.6,8.8-4.6,14.7v23.2c0,6.4,3.6,9.7,10.7,9.7h5.2v-30.5
				c0-6.1,2.3-9.2,6.9-9.2c1.2,0,2.6,0.2,4.2,0.5l1.2,0.2l1.2,0.2c1,0.2,2,0.4,2.8,0.6V797c0-2.7-0.9-4.9-2.7-6.7
				C1063.3,788.2,1060.2,787.1,1056.1,787.1z"/>
			<path class="st1" d="M1094,786.7c-6.7,0-11.8,1.5-15.4,4.6c-3,2.6-4.5,5.7-4.5,9.4v5.6c1.4-1.4,3.7-2.7,6.8-3.8
				c3.7-1.3,7.5-2,11.3-2c5.7,0,8.7,2.2,9.1,6.6h-2.7c-17.8,0-26.7,5.8-26.7,17.4c0,5.1,2,9.3,6,12.6c4.2,3.4,9.5,5.1,15.9,5.1h2.5
				c6,0,11-1.8,14.9-5.5c3.8-3.7,5.8-8.4,5.8-14.2v-11.5C1117,794.7,1109.3,786.7,1094,786.7z M1101.4,822.6c0,4.1-2.1,6.1-6.4,6.1
				c-4.6,0-6.9-1.5-6.9-4.6c0-3.1,3.5-4.7,10.5-4.7h2.8V822.6z"/>
			<path class="st1" d="M1166.5,790.8c-3-2.4-6.7-3.6-11.1-3.6c-8.8,0-15.9,2.8-21.2,8.5c-5,5.3-7.5,11.8-7.5,19.8
				c0,7.6,2.7,14,8.1,19.2c5.3,5.1,11.7,7.7,19.2,7.7c5,0,9.1-1.1,12.1-3.4c3-2.2,4.5-5.1,4.5-8.7v-7.4l-3.4,1.6
				c-1.3,0.6-2.4,1.1-3.5,1.5c-2.7,0.9-5.6,1.4-8.5,1.4c-3.7,0-6.6-1.3-8.8-3.8c-2.2-2.5-3.3-5.8-3.3-9.9c0-3.2,1.2-6,3.6-8.2
				c2.4-2.3,5.1-3.4,8.4-3.4c4.9,0,10.1,1.8,15.8,5.3v-7.5C1170.9,796.2,1169.4,793.2,1166.5,790.8z"/>
			<path class="st1" d="M1199.3,776.3h-4.7c-2.8,0-5.4,1.6-7.7,4.7c-2.3,3.1-3.4,6.6-3.4,10.4v30.1c0,13.6,6.8,20.4,20.4,20.4
				c8.6,0,12.8-3.4,12.8-10.1v-6.1c-4.7,1.2-8.5,1.8-11.3,1.8c-4.1,0-6.1-2.4-6.1-7.3V802h8.1c2.9,0,5.3-0.9,7.1-2.6
				c1.5-1.4,2.2-3.1,2.2-4.9v-6.8h-17.4V776.3z"/>
			<path class="st1" d="M1243.6,823.1v-23.4c0-7.4-3.5-11.1-10.5-11.1h-5.3v35.8c0,11.5,5.6,17.3,16.7,17.3c3.2,0,5.5-0.7,6.9-2.1
				c1.4-1.4,2.1-3.8,2.1-7.1v-4.4h-4C1245.6,828.2,1243.6,826.5,1243.6,823.1z"/>
			<path class="st1" d="M1235.6,787.4c2.5,0,4.7-0.9,6.5-2.7c1.8-1.7,2.7-3.8,2.7-6.2c0-2.4-0.9-4.6-2.7-6.4c-1.8-1.7-4-2.6-6.5-2.6
				c-2.4,0-4.5,0.9-6.2,2.6c-1.7,1.8-2.6,3.9-2.6,6.4c0,2.4,0.9,4.5,2.6,6.2C1231.1,786.5,1233.2,787.4,1235.6,787.4z"/>
			<path class="st1" d="M1286.7,786.4c-7.8,0-14,2.4-18.4,7.3c-3.9,4.3-5.9,9.6-5.9,15.9v21.8c0,2.8,0.9,5.2,2.8,7.1
				c2,1.9,4.5,2.8,7.5,2.8h5.4v-30.7c0-3,0.7-5.4,2.1-7.2c1.3-1.6,3.1-2.5,5.3-2.5c5.6,0,8.5,3.5,8.5,10.5v20c0,2.9,1,5.3,2.9,7.1
				c2,1.9,4.7,2.8,7.9,2.8h5.1v-31c0-7.4-2.3-13.3-6.8-17.7C1298.8,788.5,1293.3,786.4,1286.7,786.4z"/>
			<path class="st1" d="M1372,821.9v-11.7c0-7.1-2-12.8-6-17.1c-4.1-4.5-9.5-6.7-16.1-6.7c-8.4,0-15.1,2.7-20.1,8
				c-4.7,5.1-7.1,11.5-7.1,19.3c0,6.4,2.1,11.7,6.4,15.9c4.2,4.1,9.5,6.1,16.1,6.1c4.8,0,8.6-1.3,11.5-4v1.2c0,6.7-3.8,10-11.5,10
				c-5.2,0-11.2-1.8-18.1-5.4v7.3c0,3.5,1.8,6.5,5.3,8.9c3.6,2.5,8.2,3.8,13.8,3.8c8.3,0,14.9-2.6,19.7-7.7
				c4.4-4.7,6.6-10.7,6.6-17.9c0-1.3-0.1-3.6-0.2-6.7C1372.1,824.2,1372,823.1,1372,821.9z M1353.7,819c-1.6,2-3.8,2.9-6.5,2.9
				c-2.4,0-4.4-0.9-6-2.8c-1.6-1.8-2.4-4.1-2.4-6.9c0-3.3,0.9-6,2.8-8.1c1.8-2.1,4.1-3.2,6.8-3.2c5.2,0,7.8,3.3,7.8,10
				C1356.2,814.3,1355.4,817,1353.7,819z"/>
			<path class="st1" d="M1461.5,773c-3.8-2.6-8.8-3.9-15.1-3.9c-10.8,0-19.5,3.5-26.2,10.5c-6.7,6.9-10,15.9-10,26.8
				c0,10.4,3.5,19,10.5,25.7c6.7,6.5,14.9,9.8,24.6,9.8c5.8,0,10.8-1.2,14.8-3.5c4.7-2.7,7.1-6.5,7.1-11.4v-6.8
				c-7.2,4.5-13.9,6.7-20.1,6.7c-6,0-10.8-1.9-14.4-5.7c-3.7-3.9-5.5-9.5-5.5-16.6c0-6,1.8-10.9,5.5-14.7c3.7-3.7,8.3-5.5,13.9-5.5
				c3.1,0,6.4,0.5,9.8,1.5c4,1.3,7.7,3.2,11.1,5.8v-6.8C1467.4,779.7,1465.4,775.8,1461.5,773z"/>
			<path class="st1" d="M1501.1,786.4c-8.3,0-14.9,2.8-19.8,8.5c-4.5,5.3-6.7,12.2-6.7,20.5c0,7.5,2.2,13.7,6.6,18.8
				c4.8,5.4,11.1,8.1,18.8,8.1c8.4,0,15-2.8,19.8-8.4c4.5-5.3,6.7-12,6.7-20.4c0-7.5-2.2-13.8-6.6-19
				C1515.2,789.2,1508.9,786.4,1501.1,786.4z M1501.1,827.9c-6.8,0-10.2-4.7-10.2-14.2c0-3.8,0.8-6.8,2.4-9.1
				c1.6-2.4,3.8-3.5,6.8-3.5c6.8,0,10.2,4.8,10.2,14.4C1510.3,823.7,1507.3,827.9,1501.1,827.9z"/>
			<path class="st1" d="M1593,786.4c-6,0-10.8,2.3-14.6,6.8c-4.2-4.6-9.2-6.8-15.2-6.8c-7.9,0-14,2.3-18.2,6.8
				c-3.9,4.2-5.9,10.2-5.9,17.8v19.5c0,3.3,1.1,5.9,3.2,7.9c2,1.9,4.5,2.8,7.7,2.8h4.9V810c0-2.8,0.7-5.1,2-6.7
				c1.3-1.6,2.9-2.4,4.9-2.4c5.1,0,7.7,3.4,7.7,10.2v19.4c0,7.1,3.6,10.7,10.7,10.7h5.1v-31.7c0-5.8,2.3-8.7,6.8-8.7
				c5,0,7.5,3.4,7.5,10.2v19.4c0,7.1,3.7,10.7,11.1,10.7h4.8v-31.9c0-7.4-2.2-13.1-6.6-17.3C1604.8,788.3,1599.5,786.4,1593,786.4z"
				/>
			<path class="st1" d="M1657.5,786.4c-9,0-15.8,2.8-20.4,8.4c-4.2,5.1-6.4,12.3-6.4,21.7v30.4c0,3.1,1.1,5.6,3.2,7.5
				c2,1.9,4.5,2.8,7.3,2.8h5.5v-19.1c3,2.8,6.6,4.2,10.9,4.2c7.7,0,13.7-2.7,18.1-8.2c4.2-5.3,6.2-12.3,6.2-21.1
				c0-7-2.3-13.1-6.8-18.4C1670.4,789.2,1664.4,786.4,1657.5,786.4z M1663.5,824.7c-1.6,2.2-3.7,3.3-6.2,3.3c-3.2,0-5.8-1.2-7.8-3.6
				c-2-2.5-2.9-6-2.9-10.5c0-3.9,0.8-7,2.4-9.3c1.6-2.4,3.9-3.6,6.7-3.6c6.8,0,10.2,5.1,10.2,15.3
				C1665.8,819.7,1665,822.5,1663.5,824.7z"/>
			<path class="st1" d="M1713.7,786.7c-6.7,0-11.8,1.5-15.4,4.6c-3,2.6-4.5,5.7-4.5,9.4v5.6c1.4-1.4,3.7-2.7,6.8-3.8
				c3.7-1.3,7.5-2,11.3-2c5.7,0,8.7,2.2,9.1,6.6h-2.7c-17.8,0-26.7,5.8-26.7,17.4c0,5.1,2,9.3,6,12.6c4.2,3.4,9.5,5.1,15.9,5.1h2.5
				c6,0,11-1.8,14.9-5.5c3.8-3.7,5.8-8.4,5.8-14.2v-11.5C1736.7,794.7,1729,786.7,1713.7,786.7z M1721.1,822.6
				c0,4.1-2.1,6.1-6.4,6.1c-4.6,0-6.9-1.5-6.9-4.6c0-3.1,3.5-4.7,10.5-4.7h2.8V822.6z"/>
			<path class="st1" d="M1773.4,786.4c-7.8,0-14,2.4-18.4,7.3c-3.9,4.3-5.9,9.6-5.9,15.9v21.8c0,2.8,0.9,5.2,2.8,7.1
				c2,1.9,4.5,2.8,7.5,2.8h5.4v-30.7c0-3,0.7-5.4,2.1-7.2c1.3-1.6,3.1-2.5,5.3-2.5c5.6,0,8.5,3.5,8.5,10.5v20c0,2.9,1,5.3,2.9,7.1
				c2,1.9,4.7,2.8,7.9,2.8h5.1v-31c0-7.4-2.3-13.3-6.8-17.7C1785.5,788.5,1780,786.4,1773.4,786.4z"/>
			<path class="st1" d="M1845.4,787.6h-6.9c-1.3,11.2-4.1,22.1-8.4,32.6c-3.6-7.3-6.4-15.8-8.2-25.4c-0.3-2.1-1.4-3.8-3.2-5.2
				c-1.6-1.3-3.6-2-5.8-2h-8.6c0.9,6.4,3.3,14.8,7.1,25.2c3.8,10.5,7.5,18.4,10.8,23.5c-1.2,2.9-2.2,4.8-3.1,5.8
				c-0.9,0.9-2.2,1.4-4,1.5l-8.7,0.6v3.9c0,2.8,1.1,5.1,3.2,6.9c2,1.7,4.5,2.6,7.3,2.6c5.1,0,9.3-1.8,12.6-5.5
				c3.4-3.8,7.5-11.3,12.2-22.6c0.7-1.6,1.6-3.9,2.7-6.9c1.3-3.5,2.6-6.9,3.8-10.2c3.1-9,4.7-14.8,4.7-17.2
				C1853,790.1,1850.5,787.6,1845.4,787.6z"/>
		</g>
		<g>
			<path class="st1" d="M101.1,836.9c-3.2,0-5.7-0.8-7.7-2.5c-1.8-1.5-2.8-3.3-3.1-5.6l-0.4-2.1c-0.2-0.7-0.3-1.5-0.4-2.2l-0.1-0.9
				l-0.1-0.8c-0.2-1.2-0.4-2.2-0.6-3.2H64.3c-1.4,6.1-2.6,11.9-3.4,17.4h-6.7c-5.3,0-7.9-2.8-7.9-8.3c0-5.7,2.7-15.9,8-30.7
				c5.7-16,11-26.8,16.1-32.4h6.3c5.5,0,9.7,2.4,12.5,7.2c3.3,6,7,15.2,11,27.8c4.3,13.7,7.1,25.8,8.5,36.4H101.1z M68.1,805.4h16.7
				c-2-7.8-4.8-15.2-8.3-22.1C73.1,789.8,70.3,797.2,68.1,805.4z"/>
			<path class="st1" d="M146.4,828.2c0,6.1-3.4,9.2-10.2,9.2c-11.7,0-17.6-5.8-17.6-17.4v-53.9h5.2c7.1,0,10.6,3.4,10.6,10.2v42.4
				c0,3.4,2.3,5.1,6.9,5.1h5.1V828.2z"/>
			<path class="st1" d="M188.3,805c0,4.9-2.7,7.3-8.2,7.3h-24.8v-6.9c0-2.2,0.7-4,2.1-5.3c1.5-1.4,3.4-2.1,5.8-2.1h25V805z"/>
			<path class="st1" d="M255.8,836.9c-2.6,0-4.8-0.9-6.6-2.8c-2-2-3-4.6-3-8v-18.3h-24v29.2h-7c-2.8,0-5.2-0.9-7-2.8c-2-2-3-4.6-3-8
				v-60.5h8.3c2.4,0,4.4,0.9,6,2.6c1.7,1.7,2.5,3.8,2.5,6.3V793h24.1v-27.4h7.8c2.3,0,4.3,0.8,6.1,2.4c2,1.7,3,3.9,3,6.5v62.5H255.8
				z"/>
			<path class="st1" d="M320.9,818c0,5.8-1.9,10.6-5.8,14.3c-3.9,3.7-8.9,5.6-15,5.6h-2.5c-6.5,0-11.8-1.7-15.9-5.1
				c-4-3.3-6-7.5-6-12.6c0-11.7,8.9-17.5,26.8-17.5h2.7c-0.3-4.4-3.3-6.6-9.1-6.6c-3.9,0-7.6,0.7-11.3,2c-3.2,1.1-5.4,2.4-6.9,3.8
				v-5.7c0-3.7,1.5-6.9,4.5-9.5c3.6-3.1,8.8-4.6,15.5-4.6c15.4,0,23,8.1,23,24.3V818z M305.3,814.9h-2.8c-7,0-10.5,1.6-10.5,4.7
				c0,3.1,2.3,4.6,7,4.6c4.3,0,6.4-2,6.4-6.1V814.9z"/>
			<path class="st1" d="M332.6,786.8c0-3.8,1.1-7.2,3.4-10.4c2.3-3.1,4.8-4.7,7.7-4.7h4.7V783h17.5v6.9c0,1.9-0.7,3.5-2.2,5
				c-1.8,1.7-4.2,2.6-7.1,2.6h-8.2v18.2c0,4.9,2,7.3,6.1,7.3c2.8,0,6.6-0.6,11.3-1.8v6.1c0,6.8-4.3,10.2-12.9,10.2
				c-13.6,0-20.4-6.8-20.4-20.4V786.8z"/>
			<path class="st1" d="M417.8,818c0,5.8-1.9,10.6-5.8,14.3c-3.9,3.7-8.9,5.6-15,5.6h-2.5c-6.5,0-11.8-1.7-15.9-5.1
				c-4-3.3-6-7.5-6-12.6c0-11.7,8.9-17.5,26.8-17.5h2.7c-0.3-4.4-3.3-6.6-9.1-6.6c-3.9,0-7.6,0.7-11.3,2c-3.2,1.1-5.4,2.4-6.9,3.8
				v-5.7c0-3.7,1.5-6.9,4.5-9.5c3.6-3.1,8.8-4.6,15.5-4.6c15.4,0,23,8.1,23,24.3V818z M402.2,814.9h-2.8c-7,0-10.5,1.6-10.5,4.7
				c0,3.1,2.3,4.6,7,4.6c4.3,0,6.4-2,6.4-6.1V814.9z"/>
			<path class="st1" d="M475.6,829.5c-5,5.7-11.5,8.5-19.5,8.5c-7.1,0-13.1-2.6-18-7.7c-5-5.2-7.6-11.7-7.6-19.6v-47.8h6
				c6.6,0,9.9,3.5,9.9,10.4v13.4c3.5-3.1,7.4-4.7,11.9-4.7c7,0,12.8,2.5,17.4,7.6c4.6,5.1,7,11.6,7,19.5
				C482.8,817.2,480.4,824,475.6,829.5z M456.1,796.4c-2.7,0-4.9,1.2-6.7,3.7c-1.8,2.4-2.7,5.3-2.7,8.7c0,9.8,3.5,14.8,10.6,14.8
				c2.7,0,4.9-1.2,6.6-3.5c1.7-2.4,2.6-5.4,2.6-9C466.5,801.3,463,796.4,456.1,796.4z"/>
			<path class="st1" d="M514,847.8c-3.3,3.7-7.5,5.6-12.6,5.6c-2.8,0-5.3-0.9-7.3-2.6c-2.1-1.8-3.2-4.1-3.2-7v-3.9l8.7-0.6
				c1.8-0.2,3.1-0.7,4-1.5c0.9-0.9,1.9-2.9,3.1-5.8c-3.4-5.2-7-13.1-10.9-23.6c-3.8-10.4-6.1-18.8-7.1-25.3h8.6c2.2,0,4.1,0.7,5.8,2
				c1.8,1.3,2.9,3.1,3.2,5.2c1.9,9.7,4.6,18.2,8.3,25.5c4.3-10.6,7-21.5,8.4-32.7h7c5,0,7.6,2.5,7.6,7.6c0,2.4-1.6,8.2-4.7,17.2
				c-1.2,3.3-2.4,6.7-3.8,10.3c-1.1,3.1-2,5.4-2.7,7C521.5,836.4,517.4,844,514,847.8z"/>
		</g>
	</g>
</g>
</svg>
