<?xml version="1.0" encoding="utf-8"?>
<!-- Generator: Adobe Illustrator 26.0.1, SVG Export Plug-In . SVG Version: 6.00 Build 0)  -->
<svg version="1.1" id="Layer_1" xmlns="http://www.w3.org/2000/svg" xmlns:xlink="http://www.w3.org/1999/xlink" x="0px" y="0px"
	 viewBox="0 0 1572.3 634.7" style="enable-background:new 0 0 1572.3 634.7;" xml:space="preserve">
<style type="text/css">
	.st0{fill:#0094FF;}
	.st1{fill:#E74C3C;}
</style>
<g>
	<g>
		<g>
			<g>
				<g>
					<path class="st0" d="M629.8,365.3v37.2h36.9v-37.2H629.8z M682.2,365.3v37.2h36.9v-37.2H682.2z"/>
				</g>
			</g>
			<g>
				<g>
					<path class="st0" d="M798.7,304.6v37.5h36.9v-37.5H798.7z"/>
				</g>
			</g>
			<g>
				<g>
					<path class="st0" d="M835.6,140.9v140.4h-82.4v5.9c0,35.3-20.1,54.9-56.4,54.9h-46.5c-36.3,0-56.4-19.5-56.4-54.9v-96.4h36.9
						v101c1.6,10.5,4.7,12.7,16.1,12.7h53.6c11.2,0,14.3-2.2,15.8-12.7v-10.5h-37.2v-36.9h119.6V140.9H835.6z"/>
				</g>
			</g>
			<g>
				<g>
					<path class="st0" d="M1535.4,81.1v200.2h36.9V81.1H1535.4z"/>
				</g>
			</g>
		</g>
		<g>
			<g>
				<rect x="1027.5" y="117.4" class="st0" width="6.1" height="6.1"/>
			</g>
		</g>
		<g>
			<g>
				<rect x="1027.5" y="128" class="st0" width="6.1" height="6.1"/>
			</g>
		</g>
		<g>
			<g>
				<rect x="1027.5" y="139.4" class="st0" width="6.1" height="6.1"/>
			</g>
		</g>
		<g>
			<g>
				<rect x="1016.1" y="117.4" class="st0" width="6.1" height="6.1"/>
			</g>
		</g>
		<g>
			<g>
				<path class="st0" d="M1470.6,81.1v163.3H1425V197c0-33.2-23.9-56.1-58.3-56.1h-53.6v36.9h54.9c13,0,19.5,7.4,19.5,22.6v44H1219
					v-96.7l-171.9,24.8V83.2l-47,25.8V0h-9.4v34.5c-15.5,15.2-42.4,47.2-53.3,95c-11.5,50.5,0.5,92.9,9.5,115h-46.5V81.1h-36.9
					v200.2h644V81.1H1470.6z M1007.7,115.5l30-16.4v74.8l-18.5,2.7l-11.4-5.7V115.5z M990.6,48v32.9h-24.1
					C974.8,66.7,983.7,55.7,990.6,48z M965.3,83.2h25.4v7.6h-29.4C962.5,88.2,963.9,85.7,965.3,83.2z M960.1,93.1h30.5v7.6h-34
					C957.8,98.1,958.9,95.6,960.1,93.1z M955.7,103h35v7.6h-37.9C953.7,108,954.6,105.4,955.7,103z M951.9,112.9h38.7v7.6h-41.2
					C950.2,117.9,951,115.3,951.9,112.9z M970.3,244.4H957l-0.6-1.3c-8.5-20.3-21.2-61.8-9.9-111.5c0.7-3,1.4-6,2.2-8.9h41.8v38.9
					l-20.3-11.1V244.4z M1000.2,244.3h-6.1v-63.1h-3v63.1h-4.6v-63.1h-3v63.1h-6.1v-77.5l2.4,1.3l20.4,10.9V244.3z M1183.3,244.4
					h-176.6v-30l6.9-1l1.5-0.2l0.4-0.1l1.5-0.2l0.4-0.1l1.8-0.3l0.4-0.1l1.5-0.2l0.4-0.1l1.5-0.2l14.7-2.1l1.5-0.2l0.4-0.1l1.5-0.2
					l0.4-0.1l1.8-0.3l0.4-0.1l1.5-0.2l0.4-0.1l1.5-0.2l136.2-19.7V244.4z"/>
			</g>
		</g>
	</g>
	<g>
		<rect x="681.7" y="365.1" class="st1" width="38" height="38"/>
	</g>
	<g>
		<rect x="798" y="304.4" class="st1" width="38" height="38"/>
	</g>
	<g>
		<rect x="629.3" y="365.1" class="st1" width="38" height="38"/>
	</g>
	<g>
		<path class="st0" d="M52.3,152.8c23.5-1.3,44.5,2.9,63,12.7c22.1,13.2,37.2,30,45.3,50.5c8.1,20.5,11.6,39.9,10.6,58.4H187v36.5
			H23.5v-36.5H130v-7.7c-1.5-48-27.4-72.7-77.7-74.3V152.8z"/>
		<path class="st0" d="M203.6,158.9h70.6c37.6,1.8,59.8,19.7,66.6,53.7v61.6v36.5h-52.6H179.4v-36.5H294v-51.4
			c0.9-13.9-6.7-23-22.7-27.3h-67.8V158.9z"/>
		<path class="st0" d="M410.9,310.7h-44.9V80.4h44.9V310.7z"/>
		<path class="st0" d="M558.3,157.2v117.1v36.5c0.4,16.4-3.1,29.7-10.4,39.9c-11.4,12.9-28.2,18.8-50.3,17.7h-56.2v-39H503
			c11.5-1,15.9-7.2,13.2-18.6c-31.5,1.7-54.5-8.2-69.2-29.6c-14.7-21.4-17.1-47.2-7.3-77.6c9.8-30.4,44.2-45.8,103.4-46.4H558.3z
			 M516.2,195c-33,1.4-46.9,18.4-41.7,50.9c7,21.4,20.9,30.8,41.7,28.4V195z"/>
	</g>
	<g>
		<path class="st1" d="M78.8,468.1c7.4,0,11.1,3.7,11.1,11.1V490c0,6.2-1.8,11.3-5.5,15.2c-3.9,4.2-9.4,6.3-16.5,6.5H30.5
			c-10.2,0-17.2-3.7-21.2-11c-1.5-2.7-2.5-5.8-3-9.2c-0.2-1.3-0.4-2.7-0.5-4.1c-0.1-1.1-0.1-2.2-0.1-3.4c0-14.2,4.8-21.2,14.4-21.2
			h8.9c-3.2,2.8-5.7,6.2-7.4,10.1c-1.5,3.2-2.2,6.3-2.2,9.1v1.8c0.1,0.8,0.2,1.6,0.2,2.2c0.2,1.8,0.5,3.4,1.1,4.8
			c1.5,3.8,4.3,5.6,8.4,5.6h37.9c3.9-0.2,5.9-2.6,5.9-7.1v-21.1H78.8z M35.3,459.1c-1.8-1.8-2.6-3.8-2.6-6.1c0-2.3,0.9-4.4,2.6-6.1
			c1.7-1.8,3.7-2.6,6-2.6c2.2,0,4.2,0.9,6,2.6c1.7,1.8,2.5,3.8,2.5,6.1c0,2.3-0.8,4.4-2.5,6.1c-1.8,1.7-3.8,2.5-6,2.5
			C39,461.6,37,460.7,35.3,459.1z M54.3,459.1c-1.8-1.8-2.6-3.8-2.6-6.1c0-2.3,0.9-4.4,2.6-6.1c1.7-1.8,3.6-2.6,5.9-2.6
			c2.3,0,4.4,0.9,6.1,2.6s2.6,3.8,2.6,6.1c0,2.3-0.9,4.4-2.6,6.1c-1.8,1.7-3.8,2.5-6.1,2.5C58,461.6,56,460.7,54.3,459.1z"/>
		<path class="st1" d="M154.1,436.7c7.4,0,11.1,3.6,11.1,10.9V490c0,6.2-1.8,11.3-5.4,15.1c-3.9,4.2-9.4,6.4-16.4,6.6h-31
			c-7.9,0-11.9-3.4-11.9-10.1v-5.2h13.5v-59.6h7.9c2.2,0,4.3,0.8,6.2,2.4c2.1,1.8,3.1,3.8,3.1,6.1v51.1h10.9
			c3.9-0.2,5.9-2.6,5.9-7.1v-52.5H154.1z"/>
		<path class="st1" d="M228.8,488l-0.2,18.5c0,2.6-0.5,5.2-1.6,7.9c-1.2,3.2-2.9,6-5.2,8.4c-5.9,6.4-14.5,9.6-25.9,9.6
			c-3,0-5.4-0.7-7.2-2.1c-1.8-1.4-2.8-3.2-2.8-5.2v-6.1c11.6-0.2,19.8-2.7,24.5-7.2c-9.2-0.5-16.4-2.3-21.5-5.4
			c-7-4.2-10.5-11.1-10.5-20.5c0-8,2.2-14.5,6.5-19.6c4.7-5.4,11-8.1,19-8.1c3.1,0,6.2,0.5,9.2,1.6c8.1,3.2,13,9.5,14.6,18.6
			C228.5,481.8,228.8,485,228.8,488z M198.2,494.5c2.2,1.2,5.5,1.9,9.9,1.9h5.2v-2.8l-0.1-3.9l-0.1-3.9c-0.2-2.8-0.7-5.2-1.2-7.1
			c-1.5-4.8-4.5-7.2-9-7.2c-3,0-5.3,1.2-6.9,3.6c-1.6,2.2-2.4,5.2-2.4,9C193.6,489.1,195.1,492.5,198.2,494.5z"/>
		<path class="st1" d="M255.5,491.5c0.6,3,2.5,4.6,5.8,4.9h3.1v15.4h-4.2c-7.1-0.2-12.5-2.4-16.4-6.5c-3.7-3.8-5.5-8.9-5.5-15.2
			v-53.2h8c2.2,0,4.3,0.8,6.2,2.4c2,1.8,3,3.8,3,6.2V491.5z"/>
		<path class="st1" d="M261,496.3h18.9v15.4H261V496.3z"/>
		<path class="st1" d="M275.3,496.3h18.9v15.4h-18.9V496.3z"/>
		<path class="st1" d="M360.3,496.3v15.4h-69.8v-15.4h10.9c-1.2-3.1-1.9-6.6-1.9-10.6c0-8,2.2-14.5,6.5-19.6
			c4.6-5.4,10.9-8.1,18.9-8.1c7.6,0,13.7,2.9,18.4,8.6c4.4,5.5,6.6,12.6,6.6,21.4v8.4H360.3z M309.7,450.5c-1.7-1.7-2.5-3.7-2.5-6
			c0-2.3,0.8-4.3,2.5-6c1.7-1.7,3.7-2.5,6.1-2.5c2.4,0,4.4,0.8,6,2.5c1.7,1.6,2.5,3.6,2.5,6c0,2.3-0.8,4.3-2.5,6
			c-1.6,1.7-3.6,2.5-6,2.5C313.4,453,311.4,452.1,309.7,450.5z M314.7,484.1c0,5.4,2,9,6,10.8c1.6,0.7,3.5,1.1,5.9,1.2l3.1,0.2h5v-7
			c0-5.6-0.6-9.7-1.8-12.4c-1.7-3.7-4.7-5.5-9-5.5C317.8,471.5,314.7,475.7,314.7,484.1z M328.1,450.5c-1.7-1.6-2.5-3.6-2.5-6
			c0-2.4,0.8-4.4,2.5-6c1.7-1.7,3.7-2.5,6.1-2.5c2.2,0,4.2,0.8,6,2.5c1.7,1.7,2.5,3.7,2.5,6c0,2.3-0.8,4.3-2.5,6
			c-1.8,1.7-3.8,2.5-6,2.5C331.8,453,329.7,452.1,328.1,450.5z"/>
		<path class="st1" d="M437.7,496.3v15.4h-4.9c-8.1,0-14.2-2-18.4-5.9c-4.8,3.9-10.1,5.9-16,5.9c-6.7,0-12.3-2-17-6.1
			c-4.8,4.1-11,6.1-18.8,6.1h-4.9v-15.4h3c4.7,0,7.9-0.9,9.6-2.8c1.6-1.8,2.4-5,2.5-9.6c0-7.1,2.2-13.1,6.5-18
			c4.7-5.2,10.7-7.8,18-7.8c8,0,14.3,2.7,18.9,8.1c4.3,5,6.5,11.5,6.5,19.5c0,3.8,0.9,6.5,2.8,8.1c1.8,1.6,4.9,2.4,9.2,2.4H437.7z
			 M407.6,484.2c0-8.3-3-12.5-9.1-12.5c-6.9,0-10.4,4.7-10.4,14.1c0,8.3,3.1,12.5,9.4,12.5C404.2,498.3,407.6,493.6,407.6,484.2z"/>
		<path class="st1" d="M472.7,496.3v15.4h-4.8c-6.3,0-11.5-1.7-15.4-5c-4.2,3.3-11,5-20.4,5v-15.4h4.4c4.1-0.3,6.1-2.7,6.1-7.1
			v-52.4h6c7.3,0,11,3.7,11,11v38.2c0.2,4,0.8,6.6,2,7.9c1.3,1.6,4,2.4,8.1,2.4H472.7z"/>
		<path class="st1" d="M484.4,436.8c7.4,0,11.1,3.7,11.1,11V490c0,6.3-1.8,11.4-5.5,15.2c-3.8,4.1-9.3,6.2-16.5,6.5h-6v-15.4h4.9
			c3.9-0.2,5.9-2.6,5.9-7v-52.5H484.4z"/>
		<path class="st1" d="M599.4,496.3v15.4h-2.5c-6.7,0-11.6-1.3-14.9-4c-3,2.7-5.9,4-8.8,4h-27.8c-2.7,0-4.8-0.9-6.2-2.8
			c-1.3-1.7-2-3.7-2-6.1v-6.5h32.5c-0.5-5.8-2.5-10.8-6-14.9c-3.9-4.5-8.8-6.8-14.5-6.8c-1.1,0-3.8,0.3-8,1l3-7
			c3.2-4.9,7.2-7.4,12.2-7.4c1.8,0,3.7,0.2,5.5,0.8c10.7,3.1,18,11.3,22,24.8v-0.1c1.4,4.2,2.7,6.8,3.8,7.8c1.4,1.2,4.3,1.9,8.6,1.9
			H599.4z"/>
		<path class="st1" d="M596.7,496.3h18.9v15.4h-18.9V496.3z"/>
		<path class="st1" d="M611.1,496.3h18.9v15.4h-18.9V496.3z"/>
		<path class="st1" d="M626.3,496.3h44.1c-0.7-2.5-1.4-4.8-2.2-6.9c-1.2-2.9-2.4-5.4-3.8-7.5c-3.7-5.6-8.1-8.4-13.4-8.4
			c-5.9,0-12,2.9-18.1,8.8v-8.5c0-4.6,1.8-8.3,5.2-11.1c3.7-3.1,8.9-4.6,15.6-4.6c11.2,0,19.8,5.4,25.8,16.2c5,9,7.5,19.7,7.5,32.1
			c0,5.2-0.7,10.8-2,16.5c-3.3-6.8-9.7-10.5-19.1-11.2h-39.6V496.3z"/>
		<path class="st1" d="M710.1,511.7c-2.8,0-5-0.9-6.9-2.6c-2-2-3-4.8-3-8.2v-64.1h7.8c2.2,0,4.3,0.8,6.2,2.4c2,1.8,3,3.8,3,6.1v66.5
			H710.1z"/>
		<path class="st1" d="M777.7,488l-0.2,18.5c0,2.6-0.5,5.2-1.6,7.9c-1.2,3.2-2.9,6-5.2,8.4c-5.9,6.4-14.5,9.6-25.9,9.6
			c-3,0-5.4-0.7-7.2-2.1c-1.8-1.4-2.8-3.2-2.8-5.2v-6.1c11.6-0.2,19.8-2.7,24.5-7.2c-9.2-0.5-16.4-2.3-21.5-5.4
			c-7-4.2-10.5-11.1-10.5-20.5c0-8,2.2-14.5,6.5-19.6c4.7-5.4,11-8.1,19-8.1c3.1,0,6.2,0.5,9.2,1.6c8.1,3.2,13,9.5,14.6,18.6
			C777.3,481.8,777.7,485,777.7,488z M747.1,494.5c2.2,1.2,5.5,1.9,9.9,1.9h5.2v-2.8l-0.1-3.9l-0.1-3.9c-0.2-2.8-0.7-5.2-1.2-7.1
			c-1.5-4.8-4.5-7.2-9-7.2c-3,0-5.3,1.2-6.9,3.6c-1.6,2.2-2.4,5.2-2.4,9C742.4,489.1,744,492.5,747.1,494.5z"/>
		<path class="st1" d="M900.1,473.7c-7.3,0.4-12.5,3.3-15.5,8.8c-2.1,3.6-3.5,9.5-4.2,17.8c-0.8,9.6-2.7,16.7-5.8,21.2
			c-4.1,5.9-10.8,8.9-20,8.9c-22.6,0-33.9-10.8-33.9-32.5c0-6.7,1.4-12,4.2-15.9c2.9-3.9,6.8-5.9,11.8-5.9l7.1,0.6
			c-2.2,2.4-4,5.2-5.6,8.2c-2,4.1-3,8-3,11.9c0,6.2,1,10.5,3.1,13.1c2.9,3.7,8.6,5.5,17.1,5.6c3.9,0,6.6-1.8,8-5.4
			c0.8-2.1,1.4-6.4,1.9-13c0.2-4.8,0.8-9.2,1.6-13.1c1-5.2,2.5-9.4,4.5-12.8c6-8.8,16.4-13.2,31.1-13.2h12.8v38.2h10.6v15.4h-25.9
			V473.7z M836.7,549.8c-1.7-1.7-2.5-3.7-2.5-6c0-2.4,0.8-4.4,2.5-6c1.6-1.6,3.6-2.4,6-2.4c2.3,0,4.3,0.8,6,2.4
			c1.7,1.6,2.5,3.6,2.5,6c0,2.3-0.8,4.3-2.5,6c-1.8,1.7-3.8,2.5-6,2.5C840.4,552.3,838.4,551.5,836.7,549.8z M855.6,549.8
			c-1.7-1.7-2.5-3.7-2.5-6c0-2.4,0.8-4.4,2.5-6c1.7-1.6,3.7-2.4,6.1-2.4c2.4,0,4.5,0.8,6.1,2.4c1.7,1.6,2.5,3.6,2.5,6
			c0,2.3-0.8,4.3-2.5,6c-1.8,1.7-3.8,2.5-6.1,2.5C859.4,552.3,857.3,551.5,855.6,549.8z"/>
		<path class="st1" d="M946.9,468c7.2,0,10.8,3.7,10.8,11.1V490c0,6.2-1.8,11.3-5.4,15.1c-3.8,4.2-9.2,6.4-16.2,6.6h-12.6v-15.4
			h11.4c4-0.3,6-2.7,6-7.1V468H946.9z M947.3,532.5c-1.8,1.7-3.8,2.5-6,2.5s-4.2-0.8-5.9-2.5c-1.7-1.7-2.5-3.7-2.5-6.1
			c0-2.2,0.8-4.2,2.4-5.9c1.7-1.7,3.7-2.5,6-2.5c2.3,0,4.3,0.8,6,2.5c1.8,1.6,2.6,3.5,2.6,5.9C950,528.7,949.1,530.8,947.3,532.5z"
			/>
		<path class="st1" d="M985.6,491.5c0.6,3,2.5,4.6,5.8,4.9h3.1v15.4h-4.2c-7.1-0.2-12.5-2.4-16.4-6.5c-3.7-3.8-5.5-8.9-5.5-15.2
			v-53.2h8c2.2,0,4.3,0.8,6.2,2.4c2,1.8,3,3.8,3,6.2V491.5z"/>
		<path class="st1" d="M991.1,496.3h18.9v15.4h-18.9V496.3z"/>
		<path class="st1" d="M1005.4,496.3h18.9v15.4h-18.9V496.3z"/>
		<path class="st1" d="M1020.7,496.3h13.1c-0.1-3.9-0.1-14.5-0.1-31.6v-28h4.4c3.9,0,6.7,0.8,8.4,2.4c1.7,1.7,2.5,4.4,2.5,8.1v28.5
			c8.3-11.7,17.8-17.5,28.4-17.5c9.3,0,16.6,4.2,21.8,12.5c4.2,6.8,6.4,14.8,6.4,24v0.9c-0.1,0.4-0.1,0.7-0.1,0.8h8.8v15.4h-93.4
			V496.3z M1090.2,496.3v-2.2c0-5.2-1-9.4-3.1-12.5c-2.6-4-6.9-6.2-12.9-6.6c-5.2,0.2-10.1,2.8-14.6,7.8c-3.7,4-6.4,8.5-8.1,13.6
			H1090.2z"/>
		<path class="st1" d="M1112.8,496.3h43.8c-0.7-2.5-1.5-4.8-2.4-7c-1.1-2.8-2.3-5.3-3.8-7.4c-3.7-5.6-8.1-8.4-13.4-8.4
			c-5.9,0-12,2.9-18.2,8.8v-8.5c0-4.7,1.7-8.4,5-11.1c3.7-3,9-4.5,15.9-4.5c9.5,0,17.2,4.2,23.1,12.5c4.8,6.7,8,15.2,9.6,25.6h11
			v15.4h-70.6V496.3z"/>
		<path class="st1" d="M1197.2,436.8c7.4,0,11.1,3.7,11.1,11V490c0,6.3-1.8,11.4-5.5,15.2c-3.8,4.1-9.3,6.2-16.5,6.5h-6v-15.4h4.9
			c3.9-0.2,5.9-2.6,5.9-7v-52.5H1197.2z"/>
		<path class="st1" d="M1228.8,511.7c-2.8,0-5-0.9-6.9-2.6c-2-2-3-4.8-3-8.2v-64.1h7.8c2.2,0,4.3,0.8,6.2,2.4c2,1.8,3,3.8,3,6.1
			v66.5H1228.8z"/>
		<path class="st1" d="M1343.8,511.7h-29c-4.6-0.1-8.5-0.4-11.9-1c-4.5-0.8-8.3-2-11.4-3.6c-8-4.1-12-11.2-12-21.2
			c0-8,2.2-14.5,6.5-19.6c4.7-5.4,11-8.1,19-8.1c8.3,0,14.8,3.2,19.2,9.5c3.8,5.5,5.8,12.3,5.8,20.5v4.1c-0.1,1.7-0.1,3-0.1,4.1
			h13.9V511.7z M1289.4,450.5c-1.8-1.8-2.6-3.8-2.6-6.1c0-2.3,0.9-4.4,2.6-6.1c1.7-1.8,3.7-2.6,6-2.6c2.2,0,4.2,0.9,6,2.6
			c1.7,1.8,2.5,3.8,2.5,6.1c0,2.3-0.8,4.4-2.5,6.1c-1.8,1.7-3.8,2.5-6,2.5C1293.1,453,1291.1,452.1,1289.4,450.5z M1301.3,494.8
			c1.7,0.7,3.7,1.1,6.1,1.2l3.2,0.2h4.1v-6.6c0-5.7-0.6-9.8-1.8-12.5c-1.7-3.8-4.7-5.6-9.1-5.6c-6.1,0-9.1,4.2-9.1,12.6
			C1294.8,489.5,1297,493.1,1301.3,494.8z M1308.4,450.5c-1.8-1.8-2.6-3.8-2.6-6.1c0-2.3,0.9-4.4,2.6-6.1c1.7-1.8,3.6-2.6,5.9-2.6
			c2.3,0,4.4,0.9,6.1,2.6s2.6,3.8,2.6,6.1c0,2.3-0.9,4.4-2.6,6.1c-1.8,1.7-3.8,2.5-6.1,2.5C1312.1,453,1310.1,452.1,1308.4,450.5z"
			/>
		<path class="st1" d="M1341.1,496.3h18.9v15.4h-18.9V496.3z"/>
		<path class="st1" d="M1416.4,434.6c0,2.5-0.9,4.5-2.6,5.9l-28.9,21.6h0.4c0.2,0,0.4,0,0.8,0.1c0.3,0.2,0.7,0.3,1.1,0.5
			c1.2,0.3,2.3,0.8,3.4,1.4c3.4,1.7,6.2,3.8,8.2,6.2l0.4,0.5l0.5,0.6c0.5,0.6,1,1.2,1.4,1.9c1.2,1.8,2.4,3.6,3.4,5.6
			c2.8,5.9,4.2,12.3,4.2,19.2v13.5h-53.9v-15.4h38.1c-0.3-5.3-2-10-5-14c-1-1.2-2-2.3-3.1-3.2c-0.4-0.3-0.8-0.6-1.1-0.9l-0.4-0.2
			l-0.1-0.1v0.1c-3.5-2.2-7.1-3.2-10.8-3.2c-2.2,0-4.3,0.2-6.5,0.6l-3.4-4.4c-1.2-1.8-1.9-3.5-1.9-5.2c0-2.8,1.3-5.3,4-7.4l46-34.4
			l4.2,5.5C1415.9,430.7,1416.4,432.4,1416.4,434.6z"/>
		<path class="st1" d="M1456.8,511.7v2.9c0,4.8-1.6,9-4.9,12.4c-3.5,3.6-7.9,5.4-13.2,5.4c-3.4,0-6.2-0.8-8.2-2.4
			c-2.1-1.6-3.1-3.8-3.1-6.5v-6.8c4.2,0.5,6.3,0.8,6.4,0.8c2.9,0,4.8-0.9,5.8-2.6c0.8-1.3,1.1-3.9,1.1-7.8v-39h6.6
			c3.8,0,6.5,0.8,8.1,2.5c1.4,1.7,2.1,4.5,2.1,8.5v17.2h10.8v15.4H1456.8z"/>
		<path class="st1" d="M1547.8,461.7c7.4,0,11.1,3.7,11.1,11v17.1c0,6.3-1.8,11.4-5.5,15.2c-3.8,4.2-9.3,6.4-16.4,6.6h-3.2
			c-1.4-0.1-2.8-0.2-4.2-0.5c-4.3-0.6-7.9-1.7-10.6-3.4c-4.1,2.6-9.8,3.9-17.1,3.9h-35.5v-15.4h12.8v-34.6h7.8
			c2.2,0,4.3,0.8,6.2,2.4c2,1.8,3,3.8,3,6.1v26.1h8.2c4.1-0.3,6.1-2.7,6.1-7.1v-27.5h6.1c7.2,0,10.9,3.7,10.9,11v9.6
			c0,4.8-0.2,8.8-0.6,12c1.1,1.3,3.6,2,7.5,2c4.9-0.3,7.4-2.7,7.4-7.1v-27.5H1547.8z M1503.8,450.3c-1.8-1.8-2.6-3.8-2.6-6.1
			c0-2.3,0.9-4.4,2.6-6.1c1.7-1.8,3.7-2.6,6-2.6c2.2,0,4.2,0.9,6,2.6c1.7,1.8,2.5,3.8,2.5,6.1c0,2.3-0.8,4.4-2.5,6.1
			c-1.8,1.7-3.8,2.5-6,2.5C1507.5,452.8,1505.5,452,1503.8,450.3z M1513.5,434.5c-1.5-1.6-2.2-3.4-2.2-5.5c0-2.2,0.8-4,2.2-5.6
			c1.6-1.6,3.5-2.4,5.6-2.4c2.1,0,3.9,0.8,5.5,2.4c1.6,1.6,2.4,3.5,2.4,5.6c0,2.1-0.8,3.9-2.4,5.5c-1.6,1.6-3.4,2.4-5.5,2.4
			C1517,436.8,1515.1,436,1513.5,434.5z M1522.8,450.3c-1.8-1.8-2.6-3.8-2.6-6.1c0-2.3,0.9-4.4,2.6-6.1c1.7-1.8,3.6-2.6,5.9-2.6
			c2.3,0,4.4,0.9,6.1,2.6s2.6,3.8,2.6,6.1c0,2.3-0.9,4.4-2.6,6.1c-1.8,1.7-3.8,2.5-6.1,2.5C1526.4,452.8,1524.5,452,1522.8,450.3z"
			/>
	</g>
	<g>
		<path class="st1" d="M46.9,620.7c-2.7,0-4.9-0.7-6.6-2.1c-1.5-1.3-2.4-2.9-2.6-4.7l-0.3-1.8c-0.1-0.6-0.2-1.2-0.3-1.9l-0.1-0.8
			l-0.1-0.7c-0.1-1-0.3-1.9-0.5-2.7H15.5c-1.2,5.3-2.2,10.2-2.9,14.8H6.8c-4.5,0-6.8-2.4-6.8-7.1c0-4.8,2.3-13.6,6.9-26.3
			c4.8-13.7,9.4-22.9,13.7-27.7H26c4.7,0,8.3,2.1,10.7,6.2c2.8,5.1,6,13,9.4,23.7c3.6,11.7,6.1,22.1,7.3,31.1H46.9z M18.7,593.7
			h14.2c-1.8-6.7-4.1-13-7.1-18.9C23,580.4,20.6,586.7,18.7,593.7z"/>
		<path class="st1" d="M85.6,613.2c0,5.3-2.9,7.9-8.7,7.9c-10,0-15-4.9-15-14.8v-46.1h4.4c6.1,0,9.1,2.9,9.1,8.7v36.3
			c0,2.9,2,4.3,5.9,4.3h4.3V613.2z"/>
		<path class="st1" d="M121.4,593.4c0,4.2-2.3,6.3-7,6.3H93.2v-5.9c0-1.9,0.6-3.4,1.8-4.5c1.3-1.2,2.9-1.8,4.9-1.8h21.4V593.4z"/>
		<path class="st1" d="M179.2,620.7c-2.2,0-4.1-0.8-5.7-2.4c-1.7-1.7-2.5-4-2.5-6.9v-15.7h-20.5v24.9h-6c-2.4,0-4.4-0.8-6-2.4
			c-1.7-1.7-2.5-4-2.5-6.9v-51.7h7.1c2,0,3.7,0.7,5.2,2.2c1.4,1.5,2.1,3.3,2.1,5.4v15.9H171v-23.4h6.7c2,0,3.7,0.7,5.3,2
			c1.7,1.5,2.5,3.3,2.5,5.6v53.4H179.2z"/>
		<path class="st1" d="M234.8,604.5c0,5-1.7,9.1-4.9,12.2c-3.4,3.2-7.6,4.7-12.8,4.7h-2.1c-5.5,0-10.1-1.4-13.6-4.3
			c-3.4-2.8-5.2-6.4-5.2-10.8c0-10,7.6-14.9,22.9-14.9h2.3c-0.3-3.8-2.9-5.7-7.8-5.7c-3.3,0-6.5,0.6-9.7,1.7c-2.7,0.9-4.6,2-5.9,3.2
			v-4.8c0-3.2,1.3-5.9,3.8-8.1c3.1-2.6,7.5-3.9,13.2-3.9c13.1,0,19.7,6.9,19.7,20.8V604.5z M221.5,601.9h-2.4c-6,0-9,1.3-9,4
			c0,2.6,2,3.9,6,3.9c3.6,0,5.5-1.8,5.5-5.3V601.9z"/>
		<path class="st1" d="M244.8,577.9c0-3.2,1-6.2,2.9-8.9c2-2.7,4.1-4,6.6-4h4v9.7h14.9v5.9c0,1.6-0.6,3-1.9,4.2
			c-1.5,1.5-3.6,2.2-6.1,2.2h-7v15.6c0,4.2,1.8,6.3,5.3,6.3c2.4,0,5.7-0.5,9.7-1.5v5.3c0,5.8-3.7,8.7-11,8.7
			c-11.6,0-17.5-5.8-17.5-17.5V577.9z"/>
		<path class="st1" d="M281.9,577.9c0-3.2,1-6.2,2.9-8.9c2-2.7,4.1-4,6.6-4h4v9.7h14.9v5.9c0,1.6-0.6,3-1.9,4.2
			c-1.5,1.5-3.6,2.2-6.1,2.2h-7v15.6c0,4.2,1.8,6.3,5.3,6.3c2.4,0,5.7-0.5,9.7-1.5v5.3c0,5.8-3.7,8.7-11,8.7
			c-11.6,0-17.5-5.8-17.5-17.5V577.9z"/>
		<path class="st1" d="M354.7,604.5c0,5-1.7,9.1-4.9,12.2c-3.4,3.2-7.6,4.7-12.8,4.7h-2.1c-5.5,0-10.1-1.4-13.6-4.3
			c-3.4-2.8-5.2-6.4-5.2-10.8c0-10,7.6-14.9,22.9-14.9h2.3c-0.3-3.8-2.9-5.7-7.8-5.7c-3.3,0-6.5,0.6-9.7,1.7c-2.7,0.9-4.6,2-5.9,3.2
			v-4.8c0-3.2,1.3-5.9,3.8-8.1c3.1-2.6,7.5-3.9,13.2-3.9c13.1,0,19.7,6.9,19.7,20.8V604.5z M341.4,601.9H339c-6,0-9,1.3-9,4
			c0,2.6,2,3.9,6,3.9c3.6,0,5.5-1.8,5.5-5.3V601.9z"/>
		<path class="st1" d="M404.1,614.3c-4.3,4.8-9.9,7.3-16.7,7.3c-6.1,0-11.2-2.2-15.4-6.6c-4.3-4.4-6.5-10-6.5-16.8v-40.9h5.2
			c5.7,0,8.5,3,8.5,8.9v11.4c3-2.7,6.4-4,10.2-4c6,0,10.9,2.2,14.8,6.5c4,4.4,6,9.9,6,16.7C410.3,603.8,408.2,609.7,404.1,614.3z
			 M387.4,586.1c-2.3,0-4.2,1-5.8,3.1c-1.5,2-2.3,4.5-2.3,7.5c0,8.4,3,12.6,9.1,12.6c2.3,0,4.2-1,5.7-3c1.5-2,2.2-4.6,2.2-7.7
			C396.3,590.2,393.4,586.1,387.4,586.1z"/>
		<path class="st1" d="M434.7,572.1c-1.5,1.5-3.4,2.3-5.6,2.3c-2.1,0-3.9-0.8-5.4-2.3c-1.5-1.5-2.2-3.3-2.2-5.4
			c0-2.1,0.7-3.9,2.2-5.5c1.5-1.5,3.3-2.2,5.4-2.2c2.2,0,4,0.7,5.6,2.2c1.5,1.5,2.3,3.4,2.3,5.5C437,568.9,436.2,570.6,434.7,572.1z
			 M444.6,613.2c0,2.8-0.6,4.8-1.8,6.1s-3.2,1.8-6,1.8c-9.6,0-14.3-4.9-14.3-14.8v-30.7h4.5c6,0,9,3.2,9,9.5v20.1
			c0,2.9,1.7,4.3,5.2,4.3h3.4V613.2z"/>
		<path class="st1" d="M524.1,612.5c-5.3,6.2-12.5,9.3-21.6,9.3c-7.9,0-14.5-2.9-19.8-8.6c-5.5-5.8-8.2-13.2-8.2-22.1
			c0-9.7,2.6-17.5,7.7-23.3c5.3-6.1,12.5-9.1,21.6-9.1c7.7,0,14.3,2.7,19.6,8.1c5.6,5.7,8.4,13.2,8.4,22.5
			C531.8,598.8,529.2,606.5,524.1,612.5z M502.7,571.8c-3.9,0-7.1,1.5-9.5,4.6c-2.6,3.2-3.8,7.4-3.8,12.8c0,13,4.7,19.5,14.2,19.5
			c4.2,0,7.4-1.5,9.7-4.5c2.4-3.1,3.6-7.5,3.6-13.3C516.9,578.2,512.2,571.8,502.7,571.8z"/>
		<path class="st1" d="M579,620.7c-2.8,0-5-0.8-6.8-2.4c-1.7-1.5-2.5-3.6-2.5-6.1v-17.2c0-6-2.4-9-7.3-9c-1.9,0-3.4,0.7-4.5,2.1
			c-1.2,1.5-1.8,3.6-1.8,6.2v26.4h-4.6c-2.6,0-4.8-0.8-6.5-2.4c-1.6-1.6-2.4-3.6-2.4-6.1v-18.7c0-5.4,1.7-9.9,5-13.6
			c3.8-4.2,9-6.3,15.8-6.3c5.7,0,10.4,1.8,14.1,5.4c3.9,3.8,5.9,8.8,5.9,15.1v26.6H579z"/>
		<path class="st1" d="M630.1,601.1c-3.3,1.8-8.8,2.6-16.6,2.6h-5.2c1.3,4,4.7,6.1,10.2,6.1c5.1,0,10.1-1.4,15-4.1v4.8
			c0,7.4-5.7,11.1-17.1,11.1c-6,0-11.2-2.1-15.6-6.3c-4.7-4.4-7.1-10.1-7.1-16.9c0-7.5,2.1-13.5,6.4-18.1c4.1-4.5,9.5-6.8,16.2-6.8
			c5,0,9.4,1.7,13,4.9c3.8,3.4,5.8,7.8,5.8,13.2C635.3,596.3,633.6,599.4,630.1,601.1z M615.6,585.5c-2.2,0-3.9,0.8-5.4,2.4
			c-1.4,1.5-2.2,3.3-2.3,5.5h3.3c4.4,0,7.3-0.2,8.9-0.7c1.4-0.3,2.1-1,2.1-2.1C622.3,587.1,620,585.5,615.6,585.5z"/>
		<path class="st1" d="M714.1,578.1c-2.9-2.2-6.1-3.9-9.5-4.9c-2.9-0.9-5.7-1.3-8.4-1.3c-4.8,0-8.8,1.6-11.9,4.7
			c-3.2,3.3-4.7,7.5-4.7,12.6c0,6.1,1.6,10.9,4.7,14.2c3,3.2,7.1,4.8,12.3,4.8c5.3,0,11.1-1.9,17.3-5.8v5.9c0,4.2-2,7.5-6.1,9.8
			c-3.5,2-7.7,3-12.7,3c-8.3,0-15.4-2.8-21.1-8.4c-6-5.7-9-13.1-9-22c0-9.4,2.9-17.1,8.6-23c5.8-6,13.3-9,22.5-9
			c5.4,0,9.7,1.1,12.9,3.3c3.4,2.4,5,5.7,5,10.1V578.1z"/>
		<path class="st1" d="M726.1,580.9c4.2-4.8,9.8-7.3,17-7.3c6.7,0,12.1,2.4,16.2,7.1c3.8,4.4,5.7,9.9,5.7,16.3
			c0,7.1-1.9,13-5.8,17.5c-4.1,4.8-9.8,7.2-17,7.2c-6.7,0-12.1-2.3-16.2-7c-3.8-4.4-5.7-9.8-5.7-16.2
			C720.3,591.3,722.2,585.5,726.1,580.9z M742.1,586.2c-2.6,0-4.5,1-5.9,3c-1.3,2-2,4.5-2,7.8c0,8.1,2.9,12.2,8.8,12.2
			c5.3,0,7.9-3.6,7.9-10.7C750.9,590.3,748,586.2,742.1,586.2z"/>
		<path class="st1" d="M811.9,620.7c-2.8,0-5-0.8-6.8-2.4c-1.7-1.5-2.5-3.6-2.5-6.1v-17.2c0-6-2.4-9-7.3-9c-1.9,0-3.4,0.7-4.5,2.1
			c-1.2,1.5-1.8,3.6-1.8,6.2v26.4h-4.6c-2.6,0-4.8-0.8-6.5-2.4c-1.6-1.6-2.4-3.6-2.4-6.1v-18.7c0-5.4,1.7-9.9,5-13.6
			c3.8-4.2,9-6.3,15.8-6.3c5.7,0,10.4,1.8,14.1,5.4c3.9,3.8,5.9,8.8,5.9,15.1v26.6H811.9z"/>
		<path class="st1" d="M828.9,577.9c0-3.2,1-6.2,2.9-8.9c2-2.7,4.1-4,6.6-4h4v9.7h14.9v5.9c0,1.6-0.6,3-1.9,4.2
			c-1.5,1.5-3.6,2.2-6.1,2.2h-7v15.6c0,4.2,1.8,6.3,5.3,6.3c2.4,0,5.7-0.5,9.7-1.5v5.3c0,5.8-3.7,8.7-11,8.7
			c-11.6,0-17.5-5.8-17.5-17.5V577.9z"/>
		<path class="st1" d="M893.1,588c-0.7-0.1-1.5-0.3-2.4-0.5l-1-0.2l-1-0.2c-1.4-0.3-2.6-0.4-3.6-0.4c-4,0-6,2.6-6,7.9v26.2h-4.4
			c-6.1,0-9.2-2.8-9.2-8.3v-19.9c0-5.1,1.3-9.3,3.9-12.6c3.1-3.8,7.5-5.7,13.3-5.7c3.5,0,6.2,0.9,8.1,2.7c1.5,1.5,2.3,3.5,2.3,5.8
			V588z"/>
		<path class="st1" d="M934.9,604.5c0,5-1.7,9.1-4.9,12.2c-3.4,3.2-7.6,4.7-12.8,4.7H915c-5.5,0-10.1-1.4-13.6-4.3
			c-3.4-2.8-5.2-6.4-5.2-10.8c0-10,7.6-14.9,22.9-14.9h2.3c-0.3-3.8-2.9-5.7-7.8-5.7c-3.3,0-6.5,0.6-9.7,1.7c-2.7,0.9-4.6,2-5.9,3.2
			v-4.8c0-3.2,1.3-5.9,3.8-8.1c3.1-2.6,7.5-3.9,13.2-3.9c13.1,0,19.7,6.9,19.7,20.8V604.5z M921.6,601.9h-2.4c-6,0-9,1.3-9,4
			c0,2.6,2,3.9,6,3.9c3.6,0,5.5-1.8,5.5-5.3V601.9z"/>
		<path class="st1" d="M981.2,591.5c-4.8-3-9.4-4.5-13.5-4.5c-2.8,0-5.2,1-7.2,2.9c-2.1,2-3.1,4.3-3.1,7.1c0,3.5,0.9,6.3,2.8,8.5
			c1.9,2.2,4.4,3.2,7.6,3.2c2.5,0,4.9-0.4,7.3-1.2c0.9-0.3,2-0.8,3-1.3l2.9-1.4v6.4c0,3.1-1.3,5.6-3.8,7.5c-2.6,2-6.1,2.9-10.4,2.9
			c-6.4,0-11.9-2.2-16.5-6.6c-4.6-4.4-7-9.9-7-16.5c0-6.8,2.2-12.5,6.5-17c4.6-4.8,10.6-7.3,18.2-7.3c3.8,0,6.9,1,9.5,3.1
			c2.5,2.1,3.7,4.6,3.7,7.7V591.5z"/>
		<path class="st1" d="M992.1,577.9c0-3.2,1-6.2,2.9-8.9c2-2.7,4.1-4,6.6-4h4v9.7h14.9v5.9c0,1.6-0.6,3-1.9,4.2
			c-1.5,1.5-3.6,2.2-6.1,2.2h-7v15.6c0,4.2,1.8,6.3,5.3,6.3c2.4,0,5.7-0.5,9.7-1.5v5.3c0,5.8-3.7,8.7-11,8.7
			c-11.6,0-17.5-5.8-17.5-17.5V577.9z"/>
		<path class="st1" d="M1042.3,572.1c-1.5,1.5-3.4,2.3-5.6,2.3c-2.1,0-3.9-0.8-5.4-2.3c-1.5-1.5-2.2-3.3-2.2-5.4
			c0-2.1,0.7-3.9,2.2-5.5c1.5-1.5,3.3-2.2,5.4-2.2c2.2,0,4,0.7,5.6,2.2c1.5,1.5,2.3,3.4,2.3,5.5
			C1044.6,568.9,1043.9,570.6,1042.3,572.1z M1052.2,613.2c0,2.8-0.6,4.8-1.8,6.1s-3.2,1.8-6,1.8c-9.6,0-14.3-4.9-14.3-14.8v-30.7
			h4.5c6,0,9,3.2,9,9.5v20.1c0,2.9,1.7,4.3,5.2,4.3h3.4V613.2z"/>
		<path class="st1" d="M1096.2,620.7c-2.8,0-5-0.8-6.8-2.4c-1.7-1.5-2.5-3.6-2.5-6.1v-17.2c0-6-2.4-9-7.3-9c-1.9,0-3.4,0.7-4.5,2.1
			c-1.2,1.5-1.8,3.6-1.8,6.2v26.4h-4.6c-2.6,0-4.8-0.8-6.5-2.4c-1.6-1.6-2.4-3.6-2.4-6.1v-18.7c0-5.4,1.7-9.9,5-13.6
			c3.8-4.2,9-6.3,15.8-6.3c5.7,0,10.4,1.8,14.1,5.4c3.9,3.8,5.9,8.8,5.9,15.1v26.6H1096.2z"/>
		<path class="st1" d="M1153.8,604c0,1.1,0,2.1,0.1,2.9c0.1,2.7,0.2,4.6,0.2,5.8c0,6.2-1.9,11.3-5.7,15.4c-4.1,4.4-9.7,6.6-16.9,6.6
			c-4.8,0-8.7-1.1-11.8-3.2c-3-2.1-4.5-4.6-4.5-7.7v-6.3c5.9,3.1,11.1,4.6,15.6,4.6c6.6,0,9.9-2.9,9.9-8.6v-1
			c-2.5,2.3-5.8,3.4-9.9,3.4c-5.7,0-10.3-1.8-13.8-5.3c-3.6-3.6-5.5-8.1-5.5-13.6c0-6.7,2-12.2,6.1-16.6c4.3-4.6,10.1-6.9,17.3-6.9
			c5.7,0,10.3,1.9,13.8,5.8c3.4,3.7,5.2,8.6,5.2,14.6V604z M1127.8,588.8c-1.6,1.8-2.4,4.1-2.4,7c0,2.4,0.7,4.4,2,6
			c1.3,1.6,3.1,2.4,5.2,2.4c2.3,0,4.1-0.8,5.6-2.5c1.5-1.8,2.2-4.1,2.2-7c0-5.7-2.2-8.6-6.7-8.6
			C1131.3,586.1,1129.3,587,1127.8,588.8z"/>
		<path class="st1" d="M1235.6,578.1c-2.9-2.2-6.1-3.9-9.5-4.9c-2.9-0.9-5.7-1.3-8.4-1.3c-4.8,0-8.8,1.6-11.9,4.7
			c-3.2,3.3-4.7,7.5-4.7,12.6c0,6.1,1.6,10.9,4.7,14.2c3,3.2,7.1,4.8,12.3,4.8c5.3,0,11.1-1.9,17.3-5.8v5.9c0,4.2-2,7.5-6.1,9.8
			c-3.5,2-7.7,3-12.7,3c-8.3,0-15.4-2.8-21.1-8.4c-6-5.7-9-13.1-9-22c0-9.4,2.9-17.1,8.6-23c5.8-6,13.3-9,22.5-9
			c5.4,0,9.7,1.1,12.9,3.3c3.4,2.4,5,5.7,5,10.1V578.1z"/>
		<path class="st1" d="M1247.6,580.9c4.2-4.8,9.8-7.3,17-7.3c6.7,0,12.1,2.4,16.2,7.1c3.8,4.4,5.7,9.9,5.7,16.3
			c0,7.1-1.9,13-5.8,17.5c-4.1,4.8-9.8,7.2-17,7.2c-6.7,0-12.1-2.3-16.2-7c-3.8-4.4-5.7-9.8-5.7-16.2
			C1241.9,591.3,1243.8,585.5,1247.6,580.9z M1263.7,586.2c-2.6,0-4.5,1-5.9,3c-1.3,2-2,4.5-2,7.8c0,8.1,2.9,12.2,8.8,12.2
			c5.3,0,7.9-3.6,7.9-10.7C1272.5,590.3,1269.6,586.2,1263.7,586.2z"/>
		<path class="st1" d="M1358.5,620.7c-6.3,0-9.5-3.1-9.5-9.2v-16.7c0-5.9-2.2-8.8-6.5-8.8c-3.9,0-5.9,2.5-5.9,7.5v27.2h-4.3
			c-6.1,0-9.2-3.1-9.2-9.2v-16.7c0-5.9-2.2-8.8-6.6-8.8c-1.8,0-3.2,0.7-4.2,2c-1.1,1.4-1.7,3.3-1.7,5.8v26.9h-4.2
			c-2.7,0-4.9-0.8-6.6-2.4c-1.8-1.7-2.7-3.9-2.7-6.8v-16.8c0-6.5,1.7-11.6,5-15.3c3.6-3.9,8.9-5.9,15.7-5.9c5.1,0,9.5,2,13,5.9
			c3.2-3.9,7.4-5.9,12.5-5.9c5.6,0,10.1,1.6,13.6,4.8c3.8,3.6,5.7,8.5,5.7,14.8v27.4H1358.5z"/>
		<path class="st1" d="M1414.5,614.5c-3.8,4.7-9,7.1-15.6,7.1c-3.7,0-6.8-1.2-9.4-3.6v16.4h-4.7c-2.4,0-4.5-0.8-6.3-2.4
			c-1.8-1.7-2.7-3.8-2.7-6.5v-26.1c0-8,1.8-14.2,5.5-18.6c3.9-4.8,9.7-7.2,17.5-7.2c6,0,11.1,2.4,15.3,7.1c3.9,4.5,5.9,9.8,5.9,15.8
			C1419.8,604,1418.1,610,1414.5,614.5z M1397.1,586.1c-2.4,0-4.3,1-5.8,3.1c-1.3,2-2,4.6-2,8c0,3.8,0.8,6.8,2.5,9
			c1.7,2.1,3.9,3.1,6.7,3.1c2.2,0,3.9-0.9,5.4-2.8c1.3-1.9,2-4.3,2-7.3C1405.9,590.4,1403,586.1,1397.1,586.1z"/>
		<path class="st1" d="M1466.7,604.5c0,5-1.7,9.1-4.9,12.2c-3.4,3.2-7.6,4.7-12.8,4.7h-2.1c-5.5,0-10.1-1.4-13.6-4.3
			c-3.4-2.8-5.2-6.4-5.2-10.8c0-10,7.6-14.9,22.9-14.9h2.3c-0.3-3.8-2.9-5.7-7.8-5.7c-3.3,0-6.5,0.6-9.7,1.7c-2.7,0.9-4.6,2-5.9,3.2
			v-4.8c0-3.2,1.3-5.9,3.8-8.1c3.1-2.6,7.5-3.9,13.2-3.9c13.1,0,19.7,6.9,19.7,20.8V604.5z M1453.4,601.9h-2.4c-6,0-9,1.3-9,4
			c0,2.6,2,3.9,6,3.9c3.6,0,5.5-1.8,5.5-5.3V601.9z"/>
		<path class="st1" d="M1513.9,620.7c-2.8,0-5-0.8-6.8-2.4c-1.7-1.5-2.5-3.6-2.5-6.1v-17.2c0-6-2.4-9-7.3-9c-1.9,0-3.4,0.7-4.5,2.1
			c-1.2,1.5-1.8,3.6-1.8,6.2v26.4h-4.6c-2.6,0-4.8-0.8-6.5-2.4c-1.6-1.6-2.4-3.6-2.4-6.1v-18.7c0-5.4,1.7-9.9,5-13.6
			c3.8-4.2,9-6.3,15.8-6.3c5.7,0,10.4,1.8,14.1,5.4c3.9,3.8,5.9,8.8,5.9,15.1v26.6H1513.9z"/>
		<path class="st1" d="M1546.4,630c-2.8,3.2-6.4,4.7-10.8,4.7c-2.4,0-4.5-0.7-6.3-2.2c-1.8-1.5-2.7-3.5-2.7-6v-3.3l7.5-0.5
			c1.5-0.1,2.7-0.6,3.4-1.3c0.7-0.8,1.6-2.5,2.6-4.9c-2.9-4.4-6-11.2-9.3-20.2c-3.2-8.9-5.3-16.1-6.1-21.6h7.4
			c1.9,0,3.5,0.6,4.9,1.7c1.5,1.1,2.5,2.6,2.7,4.4c1.6,8.3,4,15.6,7.1,21.8c3.6-9,6-18.3,7.2-28h6c4.3,0,6.5,2.2,6.5,6.5
			c0,2.1-1.3,7-4,14.7c-1,2.8-2.1,5.8-3.2,8.8c-0.9,2.6-1.7,4.6-2.3,6C1552.8,620.3,1549.3,626.8,1546.4,630z"/>
	</g>
</g>
<g>
</g>
<g>
</g>
<g>
</g>
<g>
</g>
<g>
</g>
<g>
</g>
<g>
</g>
<g>
</g>
<g>
</g>
<g>
</g>
<g>
</g>
</svg>
