<?xml version="1.0" encoding="utf-8"?>
<!-- Generator: Adobe Illustrator 26.0.1, SVG Export Plug-In . SVG Version: 6.00 Build 0)  -->
<svg version="1.1" id="Layer_1" xmlns="http://www.w3.org/2000/svg" xmlns:xlink="http://www.w3.org/1999/xlink" x="0px" y="0px"
	 viewBox="0 0 1572.3 634.7" style="enable-background:new 0 0 1572.3 634.7;" xml:space="preserve">
<style type="text/css">
	.st0{fill:#FFFFFF;}
	.st1{fill:#0094FF;}
	.st2{fill:#E74C3C;}
</style>
<g>
	<g>
		<rect x="682.6" y="364.8" class="st0" width="37.7" height="37.7"/>
	</g>
	<g>
		<rect x="797.9" y="304.5" class="st0" width="37.7" height="37.7"/>
	</g>
	<g>
		<rect x="630.6" y="364.8" class="st0" width="37.7" height="37.7"/>
	</g>
	<g>
		<g>
			<g>
				<g>
					<g>
						<path class="st0" d="M631.1,364.9v36.9h36.6v-36.9H631.1z M683,364.9v36.9h36.6v-36.9H683z"/>
					</g>
				</g>
				<g>
					<g>
						<path class="st0" d="M798.6,304.7v37.2h36.6v-37.2H798.6z"/>
					</g>
				</g>
				<g>
					<g>
						<path class="st0" d="M835.2,142.4v139.2h-81.8v5.8c0,35-20,54.4-55.9,54.4h-46.1c-36,0-55.9-19.4-55.9-54.4v-95.6H632v100.2
							c1.5,10.4,4.6,12.6,16,12.6h53.2c11.1,0,14.1-2.2,15.7-12.6v-10.5H680V245h118.7V142.4H835.2z"/>
					</g>
				</g>
				<g>
					<g>
						<path class="st0" d="M1529.3,83.1v198.6h36.6V83.1H1529.3z"/>
					</g>
				</g>
			</g>
			<g>
				<g>
					<rect x="1025.5" y="119" class="st0" width="6" height="6"/>
				</g>
			</g>
			<g>
				<g>
					<rect x="1025.5" y="129.6" class="st0" width="6" height="6"/>
				</g>
			</g>
			<g>
				<g>
					<rect x="1025.5" y="140.9" class="st0" width="6" height="6"/>
				</g>
			</g>
			<g>
				<g>
					<rect x="1014.2" y="119" class="st0" width="6" height="6"/>
				</g>
			</g>
			<g>
				<g>
					<path class="st0" d="M1465,83.1v162h-45.2v-47c0-32.9-23.7-55.6-57.8-55.6h-53.2V179h54.4c12.9,0,19.4,7.4,19.4,22.4V245
						h-167.2v-96L1045,173.7V85.1l-46.6,25.6V2.6H989v34.2c-15.4,15-42.1,46.9-52.8,94.2c-11.4,50.1,0.5,92.1,9.4,114h-46.1v-162
						h-36.6v198.6h638.8V83.1H1465z M1005.9,117.2l29.7-16.3v74.2l-18.4,2.7l-11.4-5.7V117.2z M989,50.2v32.6h-23.9
						C973.3,68.8,982.1,57.8,989,50.2z M963.8,85.1H989v7.5h-29.2C961.1,90.1,962.4,87.6,963.8,85.1z M958.7,94.9H989v7.5h-33.7
						C956.4,99.9,957.5,97.4,958.7,94.9z M954.3,104.7H989v7.5h-37.6C952.3,109.7,953.3,107.2,954.3,104.7z M950.6,114.5H989v7.5
						h-40.8C948.9,119.5,949.7,117,950.6,114.5z M968.8,245h-13.2l-0.6-1.3c-8.5-20.1-21-61.3-9.8-110.6c0.7-3,1.4-5.9,2.2-8.8H989
						v38.6l-20.2-11V245z M998.4,244.9h-6v-62.6h-3v62.6h-4.5v-62.6h-3v62.6h-6V168l2.3,1.2l20.3,10.8V244.9z M1180,245h-175.2
						v-29.7l6.8-1l1.5-0.2l0.4-0.1l1.5-0.2l0.4-0.1l1.8-0.3l0.4-0.1l1.5-0.2l0.4-0.1l1.5-0.2l14.6-2.1l1.5-0.2l0.4-0.1l1.5-0.2
						l0.4-0.1l1.8-0.3l0.4-0.1l1.5-0.2l0.4-0.1l1.5-0.2L1180,190V245z"/>
				</g>
			</g>
		</g>
		<g>
			<path class="st0" d="M58.3,154.1c23.4-1.3,44.2,2.9,62.4,12.6c22,13.1,36.9,29.8,44.9,50.1c8,20.3,11.5,39.6,10.5,57.9h15.8v36.2
				H29.7v-36.2h105.7V267c-1.5-47.6-27.2-72.2-77.1-73.7V154.1z"/>
			<path class="st0" d="M208.3,160.2h70.1c37.3,1.8,59.3,19.5,66.1,53.3v61.1v36.2h-52.2H184.3v-36.2H298v-51
				c0.9-13.8-6.6-22.8-22.5-27h-67.2V160.2z"/>
			<path class="st0" d="M413.9,310.8h-44.5V82.3h44.5V310.8z"/>
			<path class="st0" d="M560.1,158.5v116.1v36.2c0.4,16.2-3,29.4-10.3,39.6c-11.3,12.8-27.9,18.7-49.9,17.5h-55.8v-38.6h61.1
				c11.4-1,15.8-7.2,13.1-18.5c-31.2,1.6-54.1-8.1-68.6-29.3c-14.5-21.2-16.9-46.9-7.2-77c9.7-30.1,43.9-45.5,102.5-46H560.1z
				 M518.4,196c-32.7,1.4-46.5,18.2-41.3,50.5c7,21.2,20.8,30.6,41.3,28.2V196z"/>
		</g>
	</g>
	<g>
		<path d="M84.6,466.9c7.4,0,11,3.7,11,11v10.7c0,6.2-1.8,11.2-5.5,15.1c-3.9,4.1-9.3,6.3-16.4,6.4H36.6c-10.1,0-17.1-3.6-21.1-10.9
			c-1.5-2.6-2.5-5.7-3-9.2c-0.2-1.3-0.4-2.7-0.5-4.1c-0.1-1.1-0.1-2.2-0.1-3.3c0-14.1,4.8-21.1,14.3-21.1H35
			c-3.2,2.8-5.7,6.2-7.3,10c-1.5,3.2-2.2,6.2-2.2,9.1v1.7c0.1,0.8,0.2,1.6,0.2,2.2c0.2,1.8,0.5,3.4,1.1,4.7c1.5,3.7,4.3,5.6,8.3,5.6
			h37.6c3.9-0.2,5.8-2.6,5.8-7.1v-21H84.6z M41.5,457.9c-1.7-1.7-2.6-3.8-2.6-6.1c0-2.3,0.9-4.3,2.6-6.1c1.7-1.7,3.6-2.6,6-2.6
			c2.2,0,4.2,0.9,6,2.6c1.7,1.7,2.5,3.8,2.5,6.1c0,2.3-0.8,4.3-2.5,6.1c-1.7,1.7-3.7,2.5-6,2.5C45.1,460.4,43.1,459.6,41.5,457.9z
			 M60.3,457.9c-1.7-1.7-2.6-3.8-2.6-6.1c0-2.3,0.9-4.3,2.6-6.1c1.7-1.7,3.6-2.6,5.8-2.6c2.3,0,4.3,0.9,6.1,2.6s2.6,3.8,2.6,6.1
			c0,2.3-0.9,4.3-2.6,6.1c-1.7,1.7-3.8,2.5-6.1,2.5C63.9,460.4,62,459.6,60.3,457.9z"/>
		<path d="M159.2,435.7c7.4,0,11,3.6,11,10.8v42c0,6.2-1.8,11.2-5.3,15c-3.9,4.1-9.3,6.3-16.2,6.6H118c-7.9,0-11.8-3.3-11.8-10v-5.2
			h13.4v-59.1h7.8c2.2,0,4.3,0.8,6.2,2.4c2.1,1.7,3.1,3.8,3.1,6.1v50.7h10.8c3.9-0.2,5.8-2.6,5.8-7.1v-52.1H159.2z"/>
		<path d="M233.4,486.6l-0.2,18.3c0,2.6-0.5,5.2-1.6,7.8c-1.2,3.1-2.9,5.9-5.2,8.3c-5.9,6.4-14.4,9.5-25.7,9.5c-3,0-5.4-0.7-7.2-2.1
			c-1.8-1.4-2.7-3.1-2.7-5.2v-6.1c11.5-0.2,19.6-2.6,24.3-7.2c-9.2-0.5-16.3-2.3-21.3-5.3c-6.9-4.2-10.4-11-10.4-20.3
			c0-7.9,2.1-14.4,6.4-19.5c4.6-5.4,10.9-8.1,18.8-8.1c3.1,0,6.1,0.5,9.2,1.6c8,3.2,12.9,9.4,14.5,18.5
			C233,480.4,233.4,483.7,233.4,486.6z M203,493c2.1,1.2,5.4,1.9,9.8,1.9h5.2v-2.7l-0.1-3.8l-0.1-3.8c-0.2-2.8-0.7-5.2-1.2-7.1
			c-1.5-4.8-4.5-7.2-8.9-7.2c-3,0-5.2,1.2-6.8,3.6c-1.6,2.2-2.4,5.2-2.4,8.9C198.4,487.7,199.9,491.1,203,493z"/>
		<path d="M259.8,490c0.6,3,2.5,4.6,5.7,4.8h3.1v15.2h-4.2c-7-0.2-12.4-2.4-16.2-6.4c-3.6-3.8-5.5-8.8-5.5-15.1v-52.8h7.9
			c2.2,0,4.3,0.8,6.2,2.4c2,1.7,3,3.8,3,6.2V490z"/>
		<path d="M265.2,494.9H284v15.2h-18.7V494.9z"/>
		<path d="M279.5,494.9h18.7v15.2h-18.7V494.9z"/>
		<path d="M363.8,494.9v15.2h-69.2v-15.2h10.8c-1.2-3.1-1.9-6.6-1.9-10.5c0-7.9,2.1-14.4,6.4-19.5c4.5-5.4,10.8-8.1,18.7-8.1
			c7.5,0,13.6,2.9,18.2,8.6c4.4,5.5,6.6,12.5,6.6,21.2v8.3H363.8z M313.6,449.4c-1.7-1.7-2.5-3.6-2.5-6c0-2.3,0.8-4.3,2.5-6
			c1.7-1.7,3.7-2.5,6.1-2.5c2.4,0,4.4,0.8,6,2.5c1.7,1.6,2.5,3.6,2.5,6c0,2.3-0.8,4.3-2.5,6c-1.6,1.7-3.6,2.5-6,2.5
			C317.3,451.8,315.2,451,313.6,449.4z M318.5,482.7c0,5.4,2,8.9,6,10.7c1.6,0.7,3.5,1.1,5.8,1.2l3.1,0.2h5v-6.9
			c0-5.5-0.6-9.6-1.7-12.3c-1.7-3.6-4.6-5.5-8.9-5.5C321.6,470.2,318.5,474.4,318.5,482.7z M331.8,449.4c-1.7-1.6-2.5-3.6-2.5-6
			c0-2.4,0.8-4.4,2.5-6c1.7-1.7,3.7-2.5,6.1-2.5c2.2,0,4.2,0.8,6,2.5c1.7,1.7,2.5,3.6,2.5,6c0,2.3-0.8,4.3-2.5,6
			c-1.7,1.7-3.7,2.5-6,2.5C335.5,451.8,333.5,451,331.8,449.4z"/>
		<path d="M440.5,494.9v15.2h-4.8c-8,0-14.1-1.9-18.2-5.8c-4.7,3.9-10,5.8-15.9,5.8c-6.6,0-12.2-2-16.9-6.1
			c-4.7,4.1-10.9,6.1-18.6,6.1h-4.8v-15.2h3c4.6,0,7.8-0.9,9.5-2.7c1.6-1.7,2.4-4.9,2.5-9.5c0-7,2.1-13,6.4-17.9
			c4.6-5.1,10.6-7.7,17.9-7.7c7.9,0,14.2,2.7,18.7,8.1c4.3,5,6.4,11.4,6.4,19.3c0,3.8,0.9,6.5,2.7,8.1c1.8,1.6,4.9,2.4,9.2,2.4
			H440.5z M410.7,482.8c0-8.3-3-12.4-9.1-12.4c-6.9,0-10.3,4.7-10.3,14c0,8.3,3.1,12.4,9.3,12.4
			C407.3,496.9,410.7,492.2,410.7,482.8z"/>
		<path d="M475.3,494.9v15.2h-4.7c-6.3,0-11.4-1.7-15.2-5c-4.2,3.3-11,5-20.2,5v-15.2h4.3c4-0.3,6.1-2.7,6.1-7.1v-51.9h6
			c7.3,0,10.9,3.6,10.9,10.9v37.9c0.2,4,0.8,6.6,2,7.8c1.3,1.6,4,2.4,8.1,2.4H475.3z"/>
		<path d="M486.9,435.9c7.4,0,11,3.6,11,10.9v41.8c0,6.3-1.8,11.3-5.5,15.1c-3.8,4.1-9.3,6.2-16.4,6.4h-6v-15.2h4.8
			c3.9-0.2,5.8-2.6,5.8-6.9v-52.1H486.9z"/>
		<path d="M601,494.9v15.2h-2.5c-6.6,0-11.5-1.3-14.8-4c-3,2.6-5.9,4-8.7,4h-27.5c-2.6,0-4.7-0.9-6.2-2.7c-1.3-1.7-2-3.7-2-6.1v-6.4
			h32.2c-0.5-5.8-2.5-10.7-6-14.8c-3.9-4.5-8.7-6.7-14.4-6.7c-1.1,0-3.7,0.3-7.9,1l3-6.9c3.1-4.9,7.2-7.3,12.2-7.3
			c1.8,0,3.6,0.2,5.5,0.7c10.6,3.1,17.9,11.2,21.8,24.5v-0.1c1.4,4.2,2.6,6.8,3.7,7.7c1.4,1.2,4.3,1.9,8.6,1.9H601z"/>
		<path d="M598.2,494.9H617v15.2h-18.7V494.9z"/>
		<path d="M612.5,494.9h18.7v15.2h-18.7V494.9z"/>
		<path d="M627.6,494.9h43.8c-0.7-2.5-1.4-4.8-2.2-6.8c-1.2-2.9-2.4-5.4-3.7-7.4c-3.6-5.5-8.1-8.3-13.3-8.3c-5.9,0-11.9,2.9-18,8.7
			v-8.4c0-4.5,1.7-8.2,5.2-11c3.6-3.1,8.8-4.6,15.5-4.6c11.1,0,19.6,5.4,25.5,16.1c5,8.9,7.4,19.5,7.4,31.9c0,5.2-0.7,10.7-2,16.4
			c-3.3-6.7-9.6-10.4-19-11.2h-39.3V494.9z"/>
		<path d="M710.7,510.1c-2.7,0-5-0.9-6.8-2.6c-2-2-3-4.7-3-8.2v-63.6h7.7c2.2,0,4.3,0.8,6.2,2.4c2,1.7,3,3.8,3,6.1v66H710.7z"/>
		<path d="M777.8,486.6l-0.2,18.3c0,2.6-0.5,5.2-1.6,7.8c-1.2,3.1-2.9,5.9-5.2,8.3c-5.9,6.4-14.4,9.5-25.7,9.5c-3,0-5.4-0.7-7.2-2.1
			c-1.8-1.4-2.7-3.1-2.7-5.2v-6.1c11.5-0.2,19.6-2.6,24.3-7.2c-9.2-0.5-16.3-2.3-21.3-5.3c-6.9-4.2-10.4-11-10.4-20.3
			c0-7.9,2.1-14.4,6.4-19.5c4.6-5.4,10.9-8.1,18.8-8.1c3.1,0,6.1,0.5,9.2,1.6c8,3.2,12.9,9.4,14.5,18.5
			C777.4,480.4,777.8,483.7,777.8,486.6z M747.4,493c2.1,1.2,5.4,1.9,9.8,1.9h5.2v-2.7l-0.1-3.8l-0.1-3.8c-0.2-2.8-0.7-5.2-1.2-7.1
			c-1.5-4.8-4.5-7.2-8.9-7.2c-3,0-5.2,1.2-6.8,3.6c-1.6,2.2-2.4,5.2-2.4,8.9C742.8,487.7,744.3,491.1,747.4,493z"/>
		<path d="M899.1,472.4c-7.3,0.4-12.4,3.3-15.4,8.7c-2.1,3.6-3.5,9.4-4.2,17.6c-0.7,9.5-2.6,16.5-5.7,21.1
			c-4.1,5.9-10.7,8.8-19.8,8.8c-22.4,0-33.6-10.7-33.6-32.2c0-6.6,1.4-11.9,4.2-15.7c2.9-3.9,6.8-5.8,11.7-5.8l7.1,0.6
			c-2.2,2.4-4,5.1-5.6,8.2c-2,4.1-3,8-3,11.8c0,6.1,1,10.5,3.1,13c2.9,3.6,8.6,5.5,17,5.6c3.9,0,6.5-1.8,7.9-5.3
			c0.7-2.1,1.4-6.4,1.9-12.9c0.2-4.8,0.8-9.1,1.6-13c1-5.1,2.5-9.3,4.5-12.6c6-8.8,16.2-13.1,30.9-13.1h12.6v37.9h10.5v15.2h-25.7
			V472.4z M836.3,547.9c-1.7-1.7-2.5-3.6-2.5-6c0-2.4,0.8-4.4,2.5-6c1.6-1.6,3.6-2.4,6-2.4c2.3,0,4.3,0.8,6,2.4
			c1.7,1.6,2.5,3.6,2.5,6c0,2.3-0.8,4.3-2.5,6c-1.7,1.7-3.7,2.5-6,2.5C839.9,550.4,837.9,549.6,836.3,547.9z M855,547.9
			c-1.7-1.7-2.5-3.6-2.5-6c0-2.4,0.8-4.4,2.5-6c1.7-1.6,3.7-2.4,6.1-2.4c2.4,0,4.4,0.8,6.1,2.4c1.7,1.6,2.5,3.6,2.5,6
			c0,2.3-0.8,4.3-2.5,6c-1.7,1.7-3.8,2.5-6.1,2.5C858.8,550.4,856.7,549.6,855,547.9z"/>
		<path d="M945.6,466.7c7.1,0,10.7,3.7,10.7,11v10.8c0,6.2-1.8,11.2-5.3,15c-3.7,4.1-9.1,6.3-16.1,6.6h-12.5v-15.2h11.3
			c4-0.3,6-2.7,6-7.1v-21.1H945.6z M946,530.7c-1.7,1.7-3.7,2.5-6,2.5c-2.2,0-4.2-0.8-5.8-2.5c-1.7-1.7-2.5-3.7-2.5-6.1
			c0-2.2,0.8-4.2,2.4-5.8c1.7-1.7,3.6-2.5,6-2.5c2.3,0,4.3,0.8,6,2.5c1.7,1.6,2.6,3.5,2.6,5.8C948.7,527,947.8,529,946,530.7z"/>
		<path d="M983.9,490c0.6,3,2.5,4.6,5.7,4.8h3.1v15.2h-4.2c-7-0.2-12.4-2.4-16.2-6.4c-3.6-3.8-5.5-8.8-5.5-15.1v-52.8h7.9
			c2.2,0,4.3,0.8,6.2,2.4c2,1.7,3,3.8,3,6.2V490z"/>
		<path d="M989.4,494.9h18.7v15.2h-18.7V494.9z"/>
		<path d="M1003.6,494.9h18.7v15.2h-18.7V494.9z"/>
		<path d="M1018.8,494.9h13c-0.1-3.9-0.1-14.3-0.1-31.4v-27.8h4.3c3.9,0,6.7,0.8,8.3,2.4c1.7,1.7,2.5,4.3,2.5,8.1v28.3
			c8.3-11.6,17.6-17.4,28.1-17.4c9.3,0,16.4,4.1,21.6,12.4c4.2,6.8,6.3,14.7,6.3,23.8v0.9c-0.1,0.4-0.1,0.7-0.1,0.7h8.7v15.2h-92.6
			V494.9z M1087.7,494.9v-2.2c0-5.2-1-9.3-3.1-12.4c-2.6-4-6.8-6.2-12.8-6.6c-5.2,0.2-10,2.8-14.5,7.7c-3.6,4-6.3,8.5-8.1,13.5
			H1087.7z"/>
		<path d="M1110.1,494.9h43.4c-0.7-2.5-1.4-4.8-2.4-6.9c-1.1-2.8-2.3-5.2-3.7-7.3c-3.6-5.5-8.1-8.3-13.3-8.3
			c-5.9,0-11.9,2.9-18.1,8.7v-8.4c0-4.6,1.7-8.3,5-11c3.6-3,8.9-4.5,15.7-4.5c9.4,0,17.1,4.1,22.9,12.4c4.7,6.6,7.9,15.1,9.5,25.4
			h10.9v15.2h-70V494.9z"/>
		<path d="M1193.8,435.9c7.4,0,11,3.6,11,10.9v41.8c0,6.3-1.8,11.3-5.5,15.1c-3.8,4.1-9.3,6.2-16.4,6.4h-6v-15.2h4.8
			c3.9-0.2,5.8-2.6,5.8-6.9v-52.1H1193.8z"/>
		<path d="M1225.2,510.1c-2.7,0-5-0.9-6.8-2.6c-2-2-3-4.7-3-8.2v-63.6h7.7c2.2,0,4.3,0.8,6.2,2.4c2,1.7,3,3.8,3,6.1v66H1225.2z"/>
		<path d="M1339.3,510.1h-28.8c-4.5-0.1-8.5-0.4-11.8-1c-4.5-0.7-8.2-1.9-11.3-3.6c-7.9-4-11.9-11.1-11.9-21.1
			c0-7.9,2.1-14.4,6.4-19.5c4.6-5.4,10.9-8.1,18.8-8.1c8.3,0,14.6,3.1,19.1,9.4c3.8,5.5,5.7,12.2,5.7,20.3v4.1
			c-0.1,1.7-0.1,3-0.1,4.1h13.8V510.1z M1285.3,449.4c-1.7-1.7-2.6-3.8-2.6-6.1c0-2.3,0.9-4.3,2.6-6.1c1.7-1.7,3.6-2.6,6-2.6
			c2.2,0,4.2,0.9,6,2.6c1.7,1.7,2.5,3.8,2.5,6.1c0,2.3-0.8,4.3-2.5,6.1c-1.7,1.7-3.7,2.5-6,2.5C1289,451.8,1287,451,1285.3,449.4z
			 M1297.1,493.4c1.7,0.7,3.7,1.1,6.1,1.2l3.2,0.2h4.1v-6.6c0-5.6-0.6-9.8-1.7-12.4c-1.7-3.7-4.7-5.6-9.1-5.6c-6,0-9.1,4.2-9.1,12.5
			C1290.7,488.1,1292.8,491.6,1297.1,493.4z M1304.2,449.4c-1.7-1.7-2.6-3.8-2.6-6.1c0-2.3,0.9-4.3,2.6-6.1c1.7-1.7,3.6-2.6,5.8-2.6
			c2.3,0,4.3,0.9,6.1,2.6s2.6,3.8,2.6,6.1c0,2.3-0.9,4.3-2.6,6.1c-1.7,1.7-3.8,2.5-6.1,2.5C1307.8,451.8,1305.8,451,1304.2,449.4z"
			/>
		<path d="M1336.5,494.9h18.7v15.2h-18.7V494.9z"/>
		<path d="M1411.3,433.6c0,2.5-0.9,4.4-2.6,5.8l-28.6,21.4h0.4c0.2,0,0.4,0,0.7,0.1c0.3,0.2,0.7,0.3,1.1,0.5
			c1.2,0.3,2.3,0.8,3.3,1.4c3.4,1.7,6.1,3.7,8.2,6.2l0.4,0.5l0.5,0.6c0.5,0.6,0.9,1.2,1.4,1.9c1.2,1.7,2.4,3.6,3.3,5.6
			c2.8,5.9,4.2,12.2,4.2,19.1v13.4h-53.4v-15.2h37.8c-0.3-5.3-2-9.9-5-13.9c-1-1.2-2-2.3-3.1-3.2c-0.4-0.3-0.8-0.6-1.1-0.9l-0.4-0.2
			l-0.1-0.1v0.1c-3.5-2.1-7-3.2-10.7-3.2c-2.2,0-4.3,0.2-6.4,0.6l-3.3-4.3c-1.2-1.7-1.9-3.5-1.9-5.2c0-2.8,1.3-5.2,4-7.3l45.6-34.1
			l4.2,5.5C1410.8,429.8,1411.3,431.5,1411.3,433.6z"/>
		<path d="M1451.3,510.1v2.9c0,4.8-1.6,8.9-4.8,12.3c-3.5,3.6-7.9,5.3-13.1,5.3c-3.4,0-6.1-0.8-8.2-2.4c-2.1-1.6-3.1-3.7-3.1-6.4
			v-6.7c4.1,0.5,6.2,0.7,6.3,0.7c2.9,0,4.8-0.9,5.7-2.6c0.7-1.3,1.1-3.9,1.1-7.7v-38.7h6.6c3.8,0,6.5,0.8,8.1,2.5
			c1.4,1.7,2.1,4.5,2.1,8.4v17.1h10.7v15.2H1451.3z"/>
		<path d="M1541.6,460.5c7.4,0,11,3.6,11,10.9v17c0,6.3-1.8,11.3-5.5,15.1c-3.8,4.1-9.2,6.3-16.2,6.6h-3.2c-1.4-0.1-2.8-0.2-4.2-0.5
			c-4.3-0.6-7.8-1.7-10.5-3.3c-4.1,2.6-9.7,3.8-17,3.8h-35.2v-15.2h12.6v-34.3h7.7c2.2,0,4.3,0.8,6.2,2.4c2,1.7,3,3.8,3,6.1v25.9
			h8.2c4-0.3,6.1-2.7,6.1-7.1v-27.3h6.1c7.2,0,10.8,3.6,10.8,10.9v9.5c0,4.8-0.2,8.8-0.6,11.9c1.1,1.3,3.6,2,7.4,2
			c4.9-0.3,7.3-2.7,7.3-7.1v-27.3H1541.6z M1497.9,449.2c-1.7-1.7-2.6-3.8-2.6-6.1c0-2.3,0.9-4.3,2.6-6.1c1.7-1.7,3.6-2.6,6-2.6
			c2.2,0,4.2,0.9,6,2.6c1.7,1.7,2.5,3.8,2.5,6.1c0,2.3-0.8,4.3-2.5,6.1c-1.7,1.7-3.7,2.5-6,2.5
			C1501.6,451.7,1499.6,450.9,1497.9,449.2z M1507.6,433.5c-1.5-1.6-2.2-3.4-2.2-5.5c0-2.1,0.7-4,2.2-5.6c1.6-1.6,3.4-2.4,5.6-2.4
			c2.1,0,3.9,0.8,5.5,2.4c1.6,1.6,2.4,3.4,2.4,5.6c0,2.1-0.8,3.9-2.4,5.5c-1.6,1.6-3.4,2.4-5.5,2.4
			C1511,435.9,1509.2,435.1,1507.6,433.5z M1516.8,449.2c-1.7-1.7-2.6-3.8-2.6-6.1c0-2.3,0.9-4.3,2.6-6.1c1.7-1.7,3.6-2.6,5.8-2.6
			c2.3,0,4.3,0.9,6.1,2.6s2.6,3.8,2.6,6.1c0,2.3-0.9,4.3-2.6,6.1c-1.7,1.7-3.8,2.5-6.1,2.5C1520.4,451.7,1518.4,450.9,1516.8,449.2z
			"/>
	</g>
	<g>
		<path d="M52.9,618.2c-2.7,0-4.8-0.7-6.5-2.1c-1.5-1.3-2.4-2.8-2.6-4.7l-0.3-1.8c-0.1-0.6-0.2-1.2-0.3-1.9l-0.1-0.8l-0.1-0.7
			c-0.1-1-0.3-1.9-0.5-2.7H21.7c-1.2,5.2-2.2,10.1-2.9,14.7h-5.7c-4.5,0-6.7-2.3-6.7-7c0-4.8,2.3-13.5,6.8-26
			c4.8-13.6,9.3-22.7,13.6-27.4h5.3c4.7,0,8.2,2,10.6,6.1c2.8,5.1,5.9,12.9,9.3,23.5c3.6,11.6,6,21.9,7.2,30.9H52.9z M24.9,591.5
			h14.1c-1.7-6.6-4.1-12.9-7-18.7C29.2,578.3,26.8,584.5,24.9,591.5z"/>
		<path d="M91.4,610.8c0,5.2-2.9,7.8-8.6,7.8c-10,0-14.9-4.9-14.9-14.7v-45.7h4.4c6,0,9,2.9,9,8.6v36c0,2.9,1.9,4.3,5.8,4.3h4.3
			V610.8z"/>
		<path d="M126.8,591.2c0,4.1-2.3,6.2-6.9,6.2h-21v-5.8c0-1.9,0.6-3.4,1.8-4.5c1.3-1.2,2.9-1.8,4.9-1.8h21.2V591.2z"/>
		<path d="M184.1,618.2c-2.2,0-4.1-0.8-5.6-2.4c-1.7-1.7-2.5-3.9-2.5-6.8v-15.5h-20.3v24.7h-5.9c-2.4,0-4.4-0.8-5.9-2.4
			c-1.7-1.7-2.5-3.9-2.5-6.8v-51.3h7c2,0,3.7,0.7,5.1,2.2c1.4,1.5,2.1,3.2,2.1,5.3V581H176v-23.2h6.6c1.9,0,3.7,0.7,5.2,2
			c1.7,1.5,2.5,3.3,2.5,5.5v53H184.1z"/>
		<path d="M239.3,602.2c0,4.9-1.6,9-4.9,12.1c-3.3,3.1-7.6,4.7-12.7,4.7h-2.1c-5.5,0-10-1.4-13.5-4.3c-3.4-2.8-5.1-6.4-5.1-10.7
			c0-9.9,7.6-14.8,22.7-14.8h2.3c-0.3-3.7-2.8-5.6-7.7-5.6c-3.3,0-6.5,0.6-9.6,1.7c-2.7,0.9-4.6,2-5.8,3.2v-4.8c0-3.1,1.3-5.8,3.8-8
			c3.1-2.6,7.4-3.9,13.1-3.9c13,0,19.5,6.9,19.5,20.6V602.2z M226.1,599.6h-2.4c-5.9,0-8.9,1.3-8.9,4c0,2.6,2,3.9,5.9,3.9
			c3.6,0,5.4-1.7,5.4-5.2V599.6z"/>
		<path d="M249.2,575.8c0-3.2,1-6.1,2.9-8.8c1.9-2.7,4.1-4,6.5-4h4v9.6h14.8v5.8c0,1.6-0.6,3-1.9,4.2c-1.5,1.5-3.5,2.2-6,2.2h-6.9
			v15.4c0,4.1,1.7,6.2,5.2,6.2c2.4,0,5.6-0.5,9.6-1.5v5.2c0,5.7-3.6,8.6-10.9,8.6c-11.6,0-17.3-5.8-17.3-17.3V575.8z"/>
		<path d="M286,575.8c0-3.2,1-6.1,2.9-8.8c1.9-2.7,4.1-4,6.5-4h4v9.6h14.8v5.8c0,1.6-0.6,3-1.9,4.2c-1.5,1.5-3.5,2.2-6,2.2h-6.9
			v15.4c0,4.1,1.7,6.2,5.2,6.2c2.4,0,5.6-0.5,9.6-1.5v5.2c0,5.7-3.6,8.6-10.9,8.6c-11.6,0-17.3-5.8-17.3-17.3V575.8z"/>
		<path d="M358.2,602.2c0,4.9-1.6,9-4.9,12.1c-3.3,3.1-7.6,4.7-12.7,4.7h-2.1c-5.5,0-10-1.4-13.5-4.3c-3.4-2.8-5.1-6.4-5.1-10.7
			c0-9.9,7.6-14.8,22.7-14.8h2.3c-0.3-3.7-2.8-5.6-7.7-5.6c-3.3,0-6.5,0.6-9.6,1.7c-2.7,0.9-4.6,2-5.8,3.2v-4.8c0-3.1,1.3-5.8,3.8-8
			c3.1-2.6,7.4-3.9,13.1-3.9c13,0,19.5,6.9,19.5,20.6V602.2z M345,599.6h-2.4c-5.9,0-8.9,1.3-8.9,4c0,2.6,2,3.9,5.9,3.9
			c3.6,0,5.4-1.7,5.4-5.2V599.6z"/>
		<path d="M407.2,611.9c-4.3,4.8-9.8,7.2-16.5,7.2c-6,0-11.1-2.2-15.2-6.5c-4.3-4.4-6.4-10-6.4-16.6v-40.6h5.1
			c5.6,0,8.4,2.9,8.4,8.8v11.3c2.9-2.7,6.3-4,10.1-4c5.9,0,10.9,2.1,14.7,6.4c3.9,4.3,5.9,9.9,5.9,16.5
			C413.3,601.5,411.3,607.3,407.2,611.9z M390.7,583.9c-2.3,0-4.2,1-5.7,3.1c-1.5,2-2.3,4.5-2.3,7.4c0,8.3,3,12.5,9,12.5
			c2.3,0,4.1-1,5.6-3c1.5-2,2.2-4.5,2.2-7.6C399.5,588,396.6,583.9,390.7,583.9z"/>
		<path d="M437.6,570c-1.5,1.5-3.4,2.3-5.5,2.3c-2.1,0-3.8-0.8-5.3-2.3c-1.5-1.5-2.2-3.2-2.2-5.3c0-2.1,0.7-3.9,2.2-5.4
			c1.5-1.5,3.2-2.2,5.3-2.2c2.1,0,4,0.7,5.5,2.2c1.5,1.5,2.3,3.3,2.3,5.4C439.9,566.8,439.1,568.6,437.6,570z M447.4,610.8
			c0,2.8-0.6,4.8-1.8,6s-3.2,1.8-5.9,1.8c-9.5,0-14.2-4.9-14.2-14.7v-30.5h4.5c5.9,0,8.9,3.1,8.9,9.4v19.9c0,2.9,1.7,4.3,5.1,4.3
			h3.4V610.8z"/>
		<path d="M526.2,610.1c-5.3,6.1-12.4,9.2-21.4,9.2c-7.8,0-14.4-2.8-19.6-8.5c-5.4-5.7-8.1-13.1-8.1-21.9c0-9.6,2.5-17.3,7.6-23.1
			c5.3-6,12.4-9,21.4-9c7.7,0,14.2,2.7,19.4,8c5.5,5.7,8.3,13.1,8.3,22.3C533.8,596.5,531.3,604.2,526.2,610.1z M505,569.7
			c-3.9,0-7,1.5-9.4,4.6c-2.5,3.1-3.8,7.4-3.8,12.7c0,12.9,4.7,19.3,14.1,19.3c4.1,0,7.3-1.5,9.6-4.5c2.4-3.1,3.6-7.5,3.6-13.2
			C519.1,576.1,514.4,569.7,505,569.7z"/>
		<path d="M580.7,618.2c-2.7,0-5-0.8-6.7-2.4c-1.7-1.5-2.5-3.5-2.5-6v-17c0-5.9-2.4-8.9-7.2-8.9c-1.9,0-3.4,0.7-4.5,2.1
			c-1.2,1.5-1.8,3.6-1.8,6.1v26.1h-4.6c-2.6,0-4.7-0.8-6.4-2.4c-1.6-1.6-2.4-3.6-2.4-6v-18.5c0-5.3,1.7-9.9,5-13.5
			c3.7-4.1,8.9-6.2,15.6-6.2c5.6,0,10.3,1.8,14,5.3c3.9,3.7,5.8,8.7,5.8,15v26.3H580.7z"/>
		<path d="M631.4,598.8c-3.3,1.7-8.8,2.6-16.4,2.6h-5.1c1.3,4,4.7,6,10.1,6c5,0,10-1.4,14.9-4.1v4.8c0,7.3-5.6,11-16.9,11
			c-5.9,0-11.1-2.1-15.4-6.2c-4.7-4.4-7-10-7-16.7c0-7.4,2.1-13.4,6.3-17.9c4.1-4.5,9.4-6.7,16-6.7c5,0,9.3,1.6,12.9,4.9
			c3.8,3.4,5.7,7.8,5.7,13.1C636.5,594,634.8,597.1,631.4,598.8z M617,583.3c-2.1,0-3.9,0.8-5.3,2.4c-1.4,1.5-2.2,3.3-2.3,5.4h3.3
			c4.3,0,7.3-0.2,8.8-0.7c1.4-0.3,2.1-1,2.1-2.1C623.6,584.9,621.4,583.3,617,583.3z"/>
		<path d="M714.6,576c-2.9-2.2-6-3.8-9.4-4.9c-2.9-0.9-5.6-1.3-8.3-1.3c-4.7,0-8.7,1.6-11.8,4.7c-3.1,3.3-4.7,7.4-4.7,12.5
			c0,6.1,1.6,10.8,4.7,14.1c3,3.2,7.1,4.8,12.2,4.8c5.3,0,11-1.9,17.1-5.7v5.8c0,4.2-2,7.4-6,9.7c-3.5,2-7.7,3-12.6,3
			c-8.3,0-15.3-2.8-20.9-8.3c-5.9-5.7-8.9-13-8.9-21.8c0-9.3,2.8-17,8.5-22.8c5.7-5.9,13.2-8.9,22.3-8.9c5.3,0,9.6,1.1,12.8,3.3
			c3.3,2.3,5,5.7,5,10V576z"/>
		<path d="M726.6,578.8c4.1-4.8,9.7-7.2,16.8-7.2c6.6,0,12,2.3,16,7c3.7,4.4,5.6,9.8,5.6,16.1c0,7.1-1.9,12.9-5.7,17.3
			c-4.1,4.7-9.7,7.1-16.8,7.1c-6.6,0-12-2.3-16-6.9c-3.7-4.3-5.6-9.7-5.6-16C720.9,589.1,722.8,583.3,726.6,578.8z M742.5,584
			c-2.5,0-4.5,1-5.8,3c-1.3,1.9-2,4.5-2,7.7c0,8.1,2.9,12.1,8.7,12.1c5.2,0,7.8-3.5,7.8-10.6C751.2,588,748.3,584,742.5,584z"/>
		<path d="M811.7,618.2c-2.7,0-5-0.8-6.7-2.4c-1.7-1.5-2.5-3.5-2.5-6v-17c0-5.9-2.4-8.9-7.2-8.9c-1.9,0-3.4,0.7-4.5,2.1
			c-1.2,1.5-1.8,3.6-1.8,6.1v26.1h-4.6c-2.6,0-4.7-0.8-6.4-2.4c-1.6-1.6-2.4-3.6-2.4-6v-18.5c0-5.3,1.7-9.9,5-13.5
			c3.7-4.1,8.9-6.2,15.6-6.2c5.6,0,10.3,1.8,14,5.3c3.9,3.7,5.8,8.7,5.8,15v26.3H811.7z"/>
		<path d="M828.5,575.8c0-3.2,1-6.1,2.9-8.8c1.9-2.7,4.1-4,6.5-4h4v9.6h14.8v5.8c0,1.6-0.6,3-1.9,4.2c-1.5,1.5-3.5,2.2-6,2.2H842
			v15.4c0,4.1,1.7,6.2,5.2,6.2c2.4,0,5.6-0.5,9.6-1.5v5.2c0,5.7-3.6,8.6-10.9,8.6c-11.6,0-17.3-5.8-17.3-17.3V575.8z"/>
		<path d="M892.3,585.8c-0.7-0.1-1.5-0.3-2.4-0.5l-1-0.2l-1-0.2c-1.4-0.3-2.6-0.4-3.6-0.4c-3.9,0-5.9,2.6-5.9,7.8v25.9h-4.4
			c-6.1,0-9.1-2.7-9.1-8.2v-19.7c0-5.1,1.3-9.2,3.9-12.5c3.1-3.7,7.5-5.6,13.2-5.6c3.5,0,6.1,0.9,8,2.7c1.5,1.5,2.3,3.4,2.3,5.7
			V585.8z"/>
		<path d="M933.7,602.2c0,4.9-1.6,9-4.9,12.1c-3.3,3.1-7.6,4.7-12.7,4.7H914c-5.5,0-10-1.4-13.5-4.3c-3.4-2.8-5.1-6.4-5.1-10.7
			c0-9.9,7.6-14.8,22.7-14.8h2.3c-0.3-3.7-2.8-5.6-7.7-5.6c-3.3,0-6.5,0.6-9.6,1.7c-2.7,0.9-4.6,2-5.8,3.2v-4.8c0-3.1,1.3-5.8,3.8-8
			c3.1-2.6,7.4-3.9,13.1-3.9c13,0,19.5,6.9,19.5,20.6V602.2z M920.5,599.6h-2.4c-5.9,0-8.9,1.3-8.9,4c0,2.6,2,3.9,5.9,3.9
			c3.6,0,5.4-1.7,5.4-5.2V599.6z"/>
		<path d="M979.6,589.3c-4.8-3-9.3-4.5-13.4-4.5c-2.7,0-5.1,1-7.1,2.9c-2.1,1.9-3.1,4.3-3.1,7c0,3.5,0.9,6.3,2.8,8.4
			c1.9,2.1,4.4,3.2,7.5,3.2c2.5,0,4.9-0.4,7.2-1.2c0.9-0.3,1.9-0.8,3-1.3l2.9-1.4v6.3c0,3.1-1.3,5.5-3.8,7.4
			c-2.6,1.9-6,2.9-10.3,2.9c-6.3,0-11.8-2.2-16.3-6.5c-4.6-4.4-6.9-9.9-6.9-16.3c0-6.7,2.1-12.4,6.4-16.8c4.5-4.8,10.6-7.2,18-7.2
			c3.7,0,6.9,1,9.4,3.1c2.5,2.1,3.7,4.6,3.7,7.6V589.3z"/>
		<path d="M990.4,575.8c0-3.2,1-6.1,2.9-8.8c1.9-2.7,4.1-4,6.5-4h4v9.6h14.8v5.8c0,1.6-0.6,3-1.9,4.2c-1.5,1.5-3.5,2.2-6,2.2h-6.9
			v15.4c0,4.1,1.7,6.2,5.2,6.2c2.4,0,5.6-0.5,9.6-1.5v5.2c0,5.7-3.6,8.6-10.9,8.6c-11.6,0-17.3-5.8-17.3-17.3V575.8z"/>
		<path d="M1040.2,570c-1.5,1.5-3.4,2.3-5.5,2.3c-2.1,0-3.8-0.8-5.3-2.3c-1.5-1.5-2.2-3.2-2.2-5.3c0-2.1,0.7-3.9,2.2-5.4
			c1.5-1.5,3.2-2.2,5.3-2.2c2.1,0,4,0.7,5.5,2.2c1.5,1.5,2.3,3.3,2.3,5.4C1042.5,566.8,1041.8,568.6,1040.2,570z M1050,610.8
			c0,2.8-0.6,4.8-1.8,6s-3.2,1.8-5.9,1.8c-9.5,0-14.2-4.9-14.2-14.7v-30.5h4.5c5.9,0,8.9,3.1,8.9,9.4v19.9c0,2.9,1.7,4.3,5.1,4.3
			h3.4V610.8z"/>
		<path d="M1093.7,618.2c-2.7,0-5-0.8-6.7-2.4c-1.7-1.5-2.5-3.5-2.5-6v-17c0-5.9-2.4-8.9-7.2-8.9c-1.9,0-3.4,0.7-4.5,2.1
			c-1.2,1.5-1.8,3.6-1.8,6.1v26.1h-4.6c-2.6,0-4.7-0.8-6.4-2.4c-1.6-1.6-2.4-3.6-2.4-6v-18.5c0-5.3,1.7-9.9,5-13.5
			c3.7-4.1,8.9-6.2,15.6-6.2c5.6,0,10.3,1.8,14,5.3c3.9,3.7,5.8,8.7,5.8,15v26.3H1093.7z"/>
		<path d="M1150.8,601.7c0,1.1,0,2,0.1,2.9c0.1,2.7,0.2,4.6,0.2,5.7c0,6.1-1.9,11.2-5.6,15.2c-4.1,4.3-9.7,6.5-16.7,6.5
			c-4.7,0-8.6-1.1-11.7-3.2c-3-2.1-4.5-4.6-4.5-7.6V615c5.9,3.1,11,4.6,15.4,4.6c6.5,0,9.8-2.8,9.8-8.5v-1c-2.5,2.3-5.7,3.4-9.8,3.4
			c-5.6,0-10.2-1.7-13.7-5.2c-3.6-3.5-5.4-8-5.4-13.5c0-6.6,2-12.1,6-16.4c4.3-4.5,10-6.8,17.1-6.8c5.7,0,10.3,1.9,13.7,5.7
			c3.4,3.7,5.1,8.5,5.1,14.5V601.7z M1125,586.6c-1.6,1.8-2.4,4.1-2.4,6.9c0,2.4,0.7,4.4,2,5.9c1.3,1.6,3,2.4,5.1,2.4
			c2.3,0,4.1-0.8,5.5-2.5c1.5-1.7,2.2-4,2.2-6.9c0-5.7-2.2-8.5-6.6-8.5C1128.4,583.9,1126.5,584.8,1125,586.6z"/>
		<path d="M1232,576c-2.9-2.2-6-3.8-9.4-4.9c-2.9-0.9-5.6-1.3-8.3-1.3c-4.7,0-8.7,1.6-11.8,4.7c-3.1,3.3-4.7,7.4-4.7,12.5
			c0,6.1,1.6,10.8,4.7,14.1c3,3.2,7.1,4.8,12.2,4.8c5.3,0,11-1.9,17.1-5.7v5.8c0,4.2-2,7.4-6,9.7c-3.5,2-7.7,3-12.6,3
			c-8.3,0-15.3-2.8-20.9-8.3c-5.9-5.7-8.9-13-8.9-21.8c0-9.3,2.8-17,8.5-22.8c5.7-5.9,13.2-8.9,22.3-8.9c5.3,0,9.6,1.1,12.8,3.3
			c3.3,2.3,5,5.7,5,10V576z"/>
		<path d="M1243.9,578.8c4.1-4.8,9.7-7.2,16.8-7.2c6.6,0,12,2.3,16,7c3.7,4.4,5.6,9.8,5.6,16.1c0,7.1-1.9,12.9-5.7,17.3
			c-4.1,4.7-9.7,7.1-16.8,7.1c-6.6,0-12-2.3-16-6.9c-3.7-4.3-5.6-9.7-5.6-16C1238.2,589.1,1240.1,583.3,1243.9,578.8z M1259.8,584
			c-2.5,0-4.5,1-5.8,3c-1.3,1.9-2,4.5-2,7.7c0,8.1,2.9,12.1,8.7,12.1c5.2,0,7.8-3.5,7.8-10.6C1268.5,588,1265.6,584,1259.8,584z"/>
		<path d="M1353.9,618.2c-6.3,0-9.4-3-9.4-9.1v-16.5c0-5.8-2.1-8.7-6.4-8.7c-3.9,0-5.8,2.5-5.8,7.4v26.9h-4.3c-6.1,0-9.1-3-9.1-9.1
			v-16.5c0-5.8-2.2-8.7-6.5-8.7c-1.7,0-3.1,0.7-4.2,2c-1.1,1.4-1.7,3.3-1.7,5.7v26.6h-4.2c-2.7,0-4.8-0.8-6.5-2.4
			c-1.8-1.7-2.7-3.9-2.7-6.7v-16.6c0-6.5,1.7-11.5,5-15.1c3.6-3.9,8.8-5.8,15.5-5.8c5.1,0,9.4,1.9,12.9,5.8
			c3.2-3.9,7.3-5.8,12.4-5.8c5.5,0,10.1,1.6,13.5,4.8c3.7,3.5,5.6,8.4,5.6,14.7v27.1H1353.9z"/>
		<path d="M1409.4,612.1c-3.7,4.7-8.9,7-15.4,7c-3.7,0-6.8-1.2-9.3-3.6v16.2h-4.7c-2.4,0-4.5-0.8-6.2-2.4c-1.8-1.7-2.7-3.8-2.7-6.4
			v-25.8c0-7.9,1.8-14.1,5.4-18.4c3.9-4.7,9.7-7.1,17.3-7.1c5.9,0,11,2.3,15.1,7c3.9,4.5,5.8,9.7,5.8,15.6
			C1414.7,601.7,1412.9,607.6,1409.4,612.1z M1392.1,583.9c-2.4,0-4.3,1-5.7,3.1c-1.3,1.9-2,4.6-2,7.9c0,3.8,0.8,6.8,2.5,8.9
			c1.7,2.1,3.9,3.1,6.6,3.1c2.1,0,3.9-0.9,5.3-2.8c1.3-1.9,2-4.3,2-7.2C1400.8,588.2,1397.9,583.9,1392.1,583.9z"/>
		<path d="M1461.2,602.2c0,4.9-1.6,9-4.9,12.1c-3.3,3.1-7.6,4.7-12.7,4.7h-2.1c-5.5,0-10-1.4-13.5-4.3c-3.4-2.8-5.1-6.4-5.1-10.7
			c0-9.9,7.6-14.8,22.7-14.8h2.3c-0.3-3.7-2.8-5.6-7.7-5.6c-3.3,0-6.5,0.6-9.6,1.7c-2.7,0.9-4.6,2-5.8,3.2v-4.8c0-3.1,1.3-5.8,3.8-8
			c3.1-2.6,7.4-3.9,13.1-3.9c13,0,19.5,6.9,19.5,20.6V602.2z M1447.9,599.6h-2.4c-5.9,0-8.9,1.3-8.9,4c0,2.6,2,3.9,5.9,3.9
			c3.6,0,5.4-1.7,5.4-5.2V599.6z"/>
		<path d="M1507.9,618.2c-2.7,0-5-0.8-6.7-2.4c-1.7-1.5-2.5-3.5-2.5-6v-17c0-5.9-2.4-8.9-7.2-8.9c-1.9,0-3.4,0.7-4.5,2.1
			c-1.2,1.5-1.8,3.6-1.8,6.1v26.1h-4.6c-2.6,0-4.7-0.8-6.4-2.4c-1.6-1.6-2.4-3.6-2.4-6v-18.5c0-5.3,1.7-9.9,5-13.5
			c3.7-4.1,8.9-6.2,15.6-6.2c5.6,0,10.3,1.8,14,5.3c3.9,3.7,5.8,8.7,5.8,15v26.3H1507.9z"/>
		<path d="M1540.2,627.4c-2.8,3.1-6.4,4.7-10.7,4.7c-2.4,0-4.5-0.7-6.2-2.2c-1.8-1.5-2.7-3.5-2.7-5.9v-3.3l7.4-0.5
			c1.5-0.1,2.7-0.6,3.4-1.3c0.7-0.8,1.6-2.4,2.6-4.9c-2.9-4.4-5.9-11.1-9.2-20c-3.2-8.8-5.2-16-6-21.4h7.3c1.9,0,3.5,0.6,4.9,1.7
			c1.5,1.1,2.4,2.6,2.7,4.4c1.6,8.2,3.9,15.4,7,21.6c3.6-8.9,6-18.2,7.1-27.7h5.9c4.3,0,6.4,2.1,6.4,6.4c0,2.1-1.3,6.9-4,14.6
			c-1,2.8-2.1,5.7-3.2,8.7c-0.9,2.6-1.7,4.6-2.3,5.9C1546.5,617.8,1543.1,624.2,1540.2,627.4z"/>
	</g>
</g>
</svg>
