<?xml version="1.0" standalone="no"?>
<!DOCTYPE svg PUBLIC "-//W3C//DTD SVG 20010904//EN"
 "http://www.w3.org/TR/2001/REC-SVG-20010904/DTD/svg10.dtd">
<svg version="1.0" xmlns="http://www.w3.org/2000/svg"
 width="2646.000000pt" height="2646.000000pt" viewBox="0 0 2646.000000 2646.000000"
 preserveAspectRatio="xMidYMid meet">
<metadata>
Created by potrace 1.14, written by Peter Selinger 2001-2017
</metadata>
<g transform="translate(0.000000,2646.000000) scale(0.100000,-0.100000)"
fill="#000000" stroke="none">
<path d="M13290 25126 c-1 -72 -1 -734 -2 -1472 l0 -1341 -182 -185 c-202
-206 -303 -312 -421 -443 -44 -49 -90 -99 -102 -112 -12 -12 -77 -87 -145
-165 -68 -79 -126 -145 -129 -148 -12 -11 -301 -362 -390 -475 -159 -200 -339
-439 -493 -655 -80 -113 -152 -213 -159 -222 -34 -46 -206 -306 -322 -485
-121 -189 -146 -228 -185 -293 -8 -14 -36 -59 -61 -100 -48 -77 -196 -329
-242 -412 -15 -26 -46 -83 -70 -125 -24 -43 -63 -114 -87 -158 -24 -44 -55
-102 -70 -130 -15 -27 -79 -151 -141 -275 -211 -416 -353 -724 -518 -1121 -83
-201 -84 -203 -86 -209 0 -3 -25 -66 -54 -140 -174 -441 -362 -1003 -501
-1500 -53 -188 -174 -661 -183 -715 -3 -17 -19 -88 -35 -160 -17 -71 -33 -143
-35 -160 -5 -27 -17 -85 -32 -155 -3 -14 -12 -63 -21 -110 -9 -47 -18 -94 -20
-105 -10 -50 -44 -244 -50 -279 -3 -21 -8 -48 -10 -60 -2 -11 -7 -40 -10 -62
-2 -23 -6 -51 -9 -62 -2 -11 -7 -42 -11 -69 -3 -26 -8 -55 -9 -63 -2 -8 -6
-40 -10 -70 -4 -30 -9 -63 -11 -74 -2 -10 -6 -44 -10 -75 -3 -31 -8 -65 -10
-76 -2 -11 -6 -42 -9 -70 -3 -27 -8 -66 -10 -85 -2 -19 -7 -60 -10 -90 -3 -30
-8 -71 -10 -90 -16 -135 -28 -269 -50 -550 -4 -57 -16 -247 -20 -320 -26 -484
-26 -1223 0 -1715 7 -132 17 -292 20 -325 2 -19 7 -78 10 -130 4 -52 8 -113
11 -135 2 -22 6 -69 9 -105 3 -35 7 -76 10 -90 2 -14 7 -61 10 -105 4 -44 8
-87 10 -95 2 -8 7 -44 10 -80 4 -36 8 -72 10 -80 2 -8 6 -44 10 -80 4 -36 9
-73 11 -84 2 -10 6 -44 10 -75 3 -31 8 -65 10 -75 2 -11 8 -54 14 -96 6 -42
12 -87 15 -99 2 -13 7 -42 9 -65 3 -22 7 -50 10 -61 2 -11 7 -40 11 -65 13
-78 15 -93 30 -175 8 -44 17 -98 21 -120 3 -22 14 -80 24 -130 11 -49 21 -101
24 -115 10 -63 61 -301 97 -460 22 -96 42 -182 44 -190 2 -8 20 -80 40 -160
20 -80 39 -154 41 -166 7 -38 154 -556 195 -689 132 -425 244 -747 394 -1135
35 -91 67 -172 70 -181 6 -15 -4 -17 -77 -17 -46 0 -95 -1 -109 -1 l-26 -1 0
-1575 0 -1575 36 -1 c43 -1 8716 0 8749 0 l22 1 0 1578 0 1577 -1737 -1 -1738
-1 0 1278 c0 1129 2 1280 15 1283 8 3 38 7 65 11 60 7 111 15 145 21 14 2 45
7 70 10 25 3 56 7 70 9 81 12 118 17 140 20 14 3 57 9 95 14 121 18 148 21
245 36 52 8 115 17 140 20 25 3 56 8 70 10 14 2 45 7 70 10 25 3 86 12 135 20
50 8 113 17 140 20 28 3 61 8 75 10 14 3 43 7 65 11 22 3 51 7 65 9 14 2 78
11 142 20 65 9 125 18 135 19 10 2 43 7 73 11 30 4 62 8 70 10 14 2 76 11 150
21 19 3 60 9 90 14 30 6 77 13 105 16 27 3 62 7 77 10 55 8 89 13 131 19 71
10 91 13 132 20 22 3 55 8 73 10 35 4 102 14 142 20 14 2 45 6 70 10 25 3 56
8 70 10 14 2 45 7 70 10 46 6 215 31 260 39 14 3 37 5 53 5 l27 1 0 1544 c0
850 -3 1547 -8 1549 -4 3 -7 1718 -7 3812 0 2094 -3 3809 -7 3811 -4 2 -26 -6
-50 -19 -24 -13 -90 -50 -148 -82 -58 -32 -134 -74 -170 -93 -36 -19 -99 -54
-140 -77 -41 -23 -109 -60 -150 -82 -41 -22 -95 -52 -120 -65 -107 -59 -149
-82 -210 -116 -36 -19 -103 -56 -150 -82 -47 -26 -114 -63 -150 -83 -36 -19
-132 -72 -215 -117 -82 -46 -175 -96 -205 -113 -30 -16 -167 -91 -305 -167
-137 -75 -281 -154 -320 -175 -38 -21 -223 -122 -410 -225 -187 -103 -380
-208 -430 -235 -49 -26 -115 -62 -145 -80 -30 -18 -138 -77 -240 -132 -213
-116 -273 -149 -315 -173 -16 -9 -55 -31 -85 -47 l-55 -30 0 4657 0 4657 -402
0 -403 0 0 -131z m-2 -5386 l0 -1400 -1024 0 c-970 0 -1023 1 -1017 18 22 58
393 650 587 937 154 226 470 670 496 695 3 3 41 52 85 110 165 218 459 578
653 800 95 108 214 240 217 240 2 0 3 -630 3 -1400z m-21 -1599 l22 -1 -2
-322 -2 -323 -1252 0 c-689 0 -1253 2 -1253 4 0 7 173 335 262 496 15 28 39
73 53 100 l26 50 1062 -2 c584 -1 1072 -2 1084 -2z m22 -1168 l1 -323 -1450 0
c-798 0 -1450 4 -1450 8 0 11 175 399 256 568 l34 71 1304 0 1303 0 2 -324z
m4018 -3386 l0 -3193 -196 -28 c-108 -16 -203 -29 -211 -31 -13 -2 -34 -5
-145 -21 -16 -2 -75 -10 -130 -19 -55 -8 -116 -17 -135 -19 -19 -3 -86 -12
-148 -21 -62 -9 -121 -18 -131 -20 -10 -2 -42 -6 -71 -10 -29 -4 -62 -9 -74
-11 -12 -2 -41 -6 -66 -9 -25 -3 -56 -8 -70 -10 -14 -2 -45 -7 -70 -11 -25 -3
-65 -9 -89 -13 -43 -6 -61 2 -529 236 -267 134 -487 245 -490 247 -7 8 -6
4712 2 4724 3 5 28 21 54 35 26 14 64 34 83 44 43 25 133 74 202 112 147 80
295 161 412 226 72 40 166 91 210 115 44 24 114 62 155 85 41 23 109 60 150
82 41 23 111 61 155 85 44 25 116 64 160 88 44 24 114 62 155 85 41 23 107 59
145 80 39 21 129 70 200 110 72 39 148 80 170 92 22 11 96 53 165 92 69 38
128 70 131 71 4 0 6 -1437 6 -3193z m-4030 2863 c17 0 16 -625 -1 -638 -6 -4
-733 -8 -1616 -7 -1398 1 -1605 3 -1602 15 9 42 228 607 242 625 6 7 511 9
1487 8 813 -1 1484 -2 1490 -3z m10 -1167 l1 -323 -1758 0 c-1403 0 -1759 3
-1755 13 2 6 22 73 45 147 23 74 49 155 57 180 8 25 16 52 18 60 3 14 49 146
75 216 l11 32 1652 -2 1652 -1 2 -322z m-20 -522 l21 -1 0 -1660 -1 -1660 -96
52 c-53 28 -130 70 -171 93 -41 23 -111 61 -155 85 -44 23 -102 55 -130 70
-27 15 -72 40 -100 55 -27 15 -79 43 -115 63 -36 19 -85 46 -110 60 -25 14
-63 35 -85 47 -22 12 -69 38 -105 57 -212 114 -647 352 -657 361 -10 7 -13
-795 -13 -4006 l0 -4015 -565 1 -565 0 -23 51 c-95 209 -411 1043 -447 1181
-4 17 -15 50 -23 75 -8 25 -38 119 -66 210 -28 91 -55 179 -60 195 -26 84 -94
326 -126 450 -20 77 -45 174 -56 216 -11 42 -21 85 -24 95 -2 10 -15 69 -30
129 -14 61 -38 162 -51 225 -14 63 -28 124 -30 135 -3 11 -11 54 -19 95 -8 41
-17 86 -20 100 -6 26 -42 215 -50 260 -11 65 -34 199 -40 230 -3 19 -7 46 -10
60 -6 32 -12 74 -20 130 -3 25 -10 70 -15 100 -5 30 -12 75 -15 100 -3 25 -10
77 -15 115 -5 39 -12 90 -15 115 -3 25 -7 61 -10 80 -11 84 -23 189 -30 275
-3 33 -8 78 -11 100 -5 41 -9 89 -19 210 -3 39 -7 93 -10 120 -5 47 -11 150
-20 305 -27 484 -27 1298 0 1750 11 198 17 279 20 315 7 75 15 160 21 235 3
41 8 89 10 105 2 17 6 57 9 90 3 33 7 76 10 95 5 39 9 73 20 170 4 36 9 72 10
80 1 8 6 40 10 70 3 30 8 66 10 80 2 14 11 75 20 135 8 61 19 135 24 165 15
84 30 171 36 210 12 77 87 469 100 528 8 34 17 76 20 92 8 45 69 305 110 470
20 80 38 152 40 160 14 61 75 280 80 290 2 4 3436 4 3552 1z m-812 -3926 c68
-36 204 -108 315 -168 87 -46 188 -100 280 -149 36 -20 106 -57 155 -83 50
-26 146 -78 215 -115 69 -37 179 -95 245 -130 66 -34 134 -71 150 -80 17 -10
84 -46 150 -80 66 -34 124 -66 129 -71 6 -6 13 -5375 7 -5567 l-1 -23 -257 3
-258 3 0 2690 c1 1480 -3 2692 -7 2695 -4 3 -63 6 -130 5 l-123 0 -2 -2675
c-1 -1471 -2 -2684 -2 -2696 -1 -21 -5 -21 -191 -23 -148 -1 -190 1 -191 11
-1 7 -3 1217 -4 2688 -1 1471 -3 2680 -4 2685 -1 7 -46 11 -128 10 l-128 -1
-2 -2669 c-1 -1469 -2 -2682 -2 -2696 l-1 -27 -257 2 -258 1 -1 3300 c0 1815
1 3304 4 3308 3 7 59 -21 297 -148z"/>
<path d="M15465 14963 l0 -258 263 -3 262 -2 -1 260 -1 260 -262 0 -261 0 0
-257z"/>
<path d="M16440 14960 l0 -260 262 2 261 3 1 255 0 255 -262 3 -262 2 0 -260z"/>
<path d="M16457 14312 c-15 -3 -17 -28 -17 -263 l0 -259 263 0 262 0 -1 255
c0 140 -3 258 -7 261 -6 6 -471 11 -500 6z"/>
<path d="M16442 13076 l3 -261 258 0 c164 0 257 4 258 10 5 57 3 484 -3 496
-6 14 -39 16 -263 16 l-255 0 2 -261z"/>
</g>
</svg>
